<svg xmlns="http://www.w3.org/2000/svg" viewBox="0 0 614.6 260"><defs><style>.cls-1{fill:#302d2c;}</style></defs><g id="Layer_2" data-name="Layer 2"><g id="Layer_1-2" data-name="Layer 1"><path class="cls-1" d="M113.33,5l.7,0a20.52,20.52,0,0,1,6.66,1.48A29.58,29.58,0,0,1,127.36,10,71.93,71.93,0,0,1,135,16c2.61,2.35,5.21,4.91,7.76,7.7q2.06,2.21,4,4.44c1.06,1.2,2.05,2.39,3,3.59l.13-.09a16.56,16.56,0,0,1,6.74-2.52,22.7,22.7,0,0,1,3.19-.22,25,25,0,0,1,4,.33,15.52,15.52,0,0,1,6.7,2.67,11.71,11.71,0,0,1,4,5.28,30.34,30.34,0,0,1,1.23,4.31c.38,1.69.69,3.5,1,5.42s.5,3.84.68,5.76.31,3.75.42,5.45a40,40,0,0,0,.55,5.42c.3,1.56,1,2.42,2,2.6l.4,0a2.9,2.9,0,0,0,2.39-1.58,23.85,23.85,0,0,0,2.06-4.14q.94-2.55,2-5.29c.72-1.83,1.5-3.65,2.3-5.45s1.6-3.49,2.41-5a41.53,41.53,0,0,1,2.45-4.17,11.91,11.91,0,0,1,5.31-3.74,12.66,12.66,0,0,1,4.12-.62,22.31,22.31,0,0,1,3.59.32,17.64,17.64,0,0,1,6.35,2.27A16,16,0,0,1,218.59,43a19.84,19.84,0,0,1,3,6.14A28.84,28.84,0,0,1,223,56.58a70.61,70.61,0,0,1,.05,9.69q-.31,5.27-1.18,10.86c-.29,2-.62,4-1,5.94-.27,1.55-.59,3.08-.9,4.61a.5.5,0,0,0,.13,0,16.52,16.52,0,0,1,6.18,3.7,23.94,23.94,0,0,1,4.41,5.72,15.47,15.47,0,0,1,2.1,6.91,11.71,11.71,0,0,1-1.61,6.44,30.08,30.08,0,0,1-2.6,3.65c-1.1,1.34-2.31,2.73-3.63,4.13s-2.7,2.78-4.1,4.14-2.72,2.56-4,3.71a38,38,0,0,0-3.87,3.81c-1,1.2-1.31,2.27-.79,3.2a2.55,2.55,0,0,0,2.41,1.24l.54,0a23.64,23.64,0,0,0,4.52-1c1.73-.56,3.52-1.15,5.41-1.71s3.78-1.12,5.69-1.61,3.73-.93,5.46-1.26a38.76,38.76,0,0,1,4.79-.68,11.88,11.88,0,0,1,6.22,1.81,15.93,15.93,0,0,1,5,5.86,18,18,0,0,1,2.19,6.36,16.41,16.41,0,0,1-.44,6.35,20.86,20.86,0,0,1-2.92,6.17,30,30,0,0,1-4.92,5.72,70.31,70.31,0,0,1-7.55,6.09c-2.88,2-6,4-9.24,5.84-1.73,1-3.46,2-5.23,3-1.38.74-2.77,1.45-4.17,2.16a.75.75,0,0,1,.06.13,16.54,16.54,0,0,1,1,7.13,23.58,23.58,0,0,1-1.71,7,15.4,15.4,0,0,1-4.1,5.95,11.83,11.83,0,0,1-6,2.76,29.54,29.54,0,0,1-4,.24h-.43c-1.74,0-3.56-.09-5.5-.25s-3.86-.38-5.78-.63-3.71-.53-5.4-.8a36.9,36.9,0,0,0-5.4-.66h-.28c-1.43,0-2.33.46-2.71,1.38a2.75,2.75,0,0,0,.9,3.07,22.91,22.91,0,0,0,3.57,2.93c1.51,1,3.09,2,4.71,3.16s3.23,2.27,4.8,3.45,3,2.33,4.39,3.48a44.51,44.51,0,0,1,3.52,3.32,11.85,11.85,0,0,1,2.45,6,15.66,15.66,0,0,1-1.43,7.59,17.77,17.77,0,0,1-3.61,5.68,16.3,16.3,0,0,1-5.22,3.63,20.72,20.72,0,0,1-6.65,1.55,20.38,20.38,0,0,1-2.41.13,36.42,36.42,0,0,1-5.13-.41,69.1,69.1,0,0,1-9.46-2.11,106.46,106.46,0,0,1-10.33-3.56c-1.88-.72-3.73-1.48-5.58-2.26-1.44-.62-2.88-1.26-4.3-1.91a.31.31,0,0,1-.06.13,16.14,16.14,0,0,1-5,5.19,23.86,23.86,0,0,1-6.55,3,16.75,16.75,0,0,1-4.75.73,14.27,14.27,0,0,1-2.47-.22,11.88,11.88,0,0,1-5.92-3,31,31,0,0,1-3-3.35c-1.07-1.37-2.14-2.85-3.23-4.47s-2.11-3.25-3.12-4.9-1.9-3.24-2.72-4.72a35.74,35.74,0,0,0-2.87-4.63,3.06,3.06,0,0,0-2.35-1.57,2,2,0,0,0-.58.09,2.71,2.71,0,0,0-1.84,2.6,22.86,22.86,0,0,0-.06,4.63c.16,1.79.31,3.68.46,5.65s.23,3.93.3,5.9.07,3.84,0,5.61a43.79,43.79,0,0,1-.39,4.8,12,12,0,0,1-3.17,5.68,15.8,15.8,0,0,1-6.83,3.61,18.47,18.47,0,0,1-5.19.78,14.92,14.92,0,0,1-1.5-.07A15.55,15.55,0,0,1,83,253.1a20.17,20.17,0,0,1-5.37-4.22,29.58,29.58,0,0,1-4.49-6.08,70,70,0,0,1-4.25-8.7q-2-4.87-3.65-10.3c-.6-1.92-1.17-3.83-1.7-5.76-.43-1.51-.82-3-1.2-4.54l-.12,0a18.11,18.11,0,0,1-2.18.14,16.19,16.19,0,0,1-5-.79,23.73,23.73,0,0,1-6.46-3.24,15.25,15.25,0,0,1-4.88-5.31,11.89,11.89,0,0,1-1.36-6.5,32.59,32.59,0,0,1,.76-4.42c.41-1.69.9-3.45,1.5-5.3s1.21-3.68,1.89-5.49,1.33-3.51,2-5.09a36.7,36.7,0,0,0,1.84-5.11c.41-1.55.19-2.62-.68-3.23a2.19,2.19,0,0,0-1.32-.43,3.63,3.63,0,0,0-1.86.62,23.23,23.23,0,0,0-3.65,2.83c-1.31,1.25-2.68,2.55-4.14,3.89s-2.91,2.63-4.42,3.92-3,2.44-4.38,3.5-2.76,2-4,2.69a12.07,12.07,0,0,1-5,1.13,10.34,10.34,0,0,1-1.36-.08,15.67,15.67,0,0,1-7.09-3.07,17.8,17.8,0,0,1-4.73-4.8,15.79,15.79,0,0,1-2.37-5.89,20.29,20.29,0,0,1,0-6.83,29.46,29.46,0,0,1,1.94-7.29,68.47,68.47,0,0,1,4.17-8.76,106.27,106.27,0,0,1,5.78-9.27c1.12-1.67,2.27-3.31,3.43-4.93.93-1.29,1.88-2.53,2.82-3.76a1,1,0,0,1-.11-.1,16.52,16.52,0,0,1-4-6,23.72,23.72,0,0,1-1.49-7.05A15.5,15.5,0,0,1,19,112.34a11.69,11.69,0,0,1,4.23-5.1,29.94,29.94,0,0,1,3.94-2.16c1.56-.74,3.26-1.45,5.07-2.14s3.63-1.36,5.48-2,3.57-1.13,5.21-1.6A37,37,0,0,0,48,97.61c1.45-.62,2.15-1.48,2.09-2.53A2.77,2.77,0,0,0,48,92.7a22.2,22.2,0,0,0-4.49-1.08c-1.79-.24-3.67-.51-5.6-.81s-3.89-.64-5.83-1-3.76-.79-5.48-1.24A45.82,45.82,0,0,1,22,87.1a12,12,0,0,1-4.81-4.35,15.85,15.85,0,0,1-2-7.46A18,18,0,0,1,16,68.6a16.09,16.09,0,0,1,3.14-5.53,20.72,20.72,0,0,1,5.3-4.28,29.63,29.63,0,0,1,6.93-3,71.38,71.38,0,0,1,9.43-2.2q5.2-.87,10.87-1.28c2-.14,4-.28,6-.37,1.59-.08,3.15-.11,4.71-.15v-.14a16.39,16.39,0,0,1,2.23-6.85,23.92,23.92,0,0,1,4.59-5.57,15.46,15.46,0,0,1,6.26-3.58,12,12,0,0,1,3.08-.41,12.37,12.37,0,0,1,3.57.54,31,31,0,0,1,4.14,1.73c1.54.76,3.16,1.64,4.83,2.62s3.32,2,5,3.07,3.11,2.09,4.5,3.07a39.06,39.06,0,0,0,4.58,2.94,4.21,4.21,0,0,0,1.91.57,2,2,0,0,0,1.38-.52,2.74,2.74,0,0,0,.54-3.15,24.35,24.35,0,0,0-1.95-4.19c-.93-1.56-1.89-3.18-2.87-4.9s-1.94-3.43-2.85-5.18-1.72-3.43-2.44-5a43,43,0,0,1-1.72-4.5,12,12,0,0,1,.38-6.49A15.86,15.86,0,0,1,102,9.55,18.21,18.21,0,0,1,107.74,6a16.12,16.12,0,0,1,5.59-1m6.28,65.25a5.84,5.84,0,0,1-1.25-.14A28.37,28.37,0,0,1,110.85,67c-.82-.52-1.83-1.2-3-2s-2.43-1.7-3.76-2.66l-4-2.85-3.72-2.6c-1.15-.8-2.13-1.45-2.93-1.94a10,10,0,0,0-4.11-1.76l-.49,0a3.78,3.78,0,0,0-3.65,4.49,17.71,17.71,0,0,0,2.57,5.3c.47.7,1.08,1.55,1.82,2.55s1.63,2.11,2.62,3.33,2.08,2.5,3.23,3.84,2.37,2.72,3.63,4.12,2.54,2.85,3.66,4.16,2.15,2.54,3.1,3.7,1.75,2.2,2.41,3.15a19.48,19.48,0,0,1,1.56,2.53,7.75,7.75,0,0,1,.44,4.26,7.07,7.07,0,0,1-2.4,3.82,7.22,7.22,0,0,1-4.75,2.2,4.73,4.73,0,0,1-.65,0,17.73,17.73,0,0,1-6.14-2.44c-1.32-.9-2.69-1.94-4.14-3.12s-2.9-2.44-4.39-3.81-3-2.83-4.46-4.38-2.94-3.1-4.39-4.7c-1.67-1.91-3.31-3.89-5-6S70.82,72,69.4,70l-1-1.51-1,.14c-1.37.21-2.73.38-4,.54-2.52.25-5,.55-7.37.88s-4.52.68-6.44,1a27.71,27.71,0,0,0-4.41,1.13,14.62,14.62,0,0,0-4.33,2.28,3.86,3.86,0,0,0-1.35,3.41,4.22,4.22,0,0,0,1.84,3.26A11.32,11.32,0,0,0,46.05,83c.81.14,1.81.3,3,.48s2.52.34,3.95.5,2.92.33,4.46.53l4.52.56,4.09.48a13.35,13.35,0,0,1,6.44,2.63A7.69,7.69,0,0,1,75,93.9c.17,2.86-.58,5-2.29,6.38a28.31,28.31,0,0,1-7.1,3.93c-.91.32-2.08.68-3.44,1.09l-4.45,1.29L53,107.94l-4.34,1.28c-1.34.41-2.46.77-3.34,1.09a9.87,9.87,0,0,0-3.94,2.09,3.64,3.64,0,0,0-1.12,2.85,3.51,3.51,0,0,0,2,3.18A18,18,0,0,0,48,119.74c.83.06,1.88.11,3.13.15.92,0,1.92,0,3,0h1.22c1.58,0,3.25-.07,5-.13s3.6-.16,5.48-.27,3.81-.2,5.52-.26,3.33-.12,4.82-.13H77c1.19,0,2.26,0,3.23.08a19.33,19.33,0,0,1,2.94.36,7.84,7.84,0,0,1,3.61,2.31,7.26,7.26,0,0,1,1.49,4.26c.14,2.5-.41,4.34-1.68,5.55A17.21,17.21,0,0,1,80.82,135c-1.51.48-3.18.9-5,1.3s-3.71.74-5.71,1.05-4.08.55-6.21.76-4.26.37-6.42.5-4.46.15-6.75.15h-1c-2.65,0-5.2-.11-7.67-.28l-1.8-.16c-.17.3-.34.58-.53.9-.69,1.18-1.4,2.35-2.1,3.46-1.36,2.14-2.66,4.25-3.88,6.32s-2.3,4-3.22,5.68a25.94,25.94,0,0,0-1.85,4.16,14.37,14.37,0,0,0-.93,4.8,3.9,3.9,0,0,0,1.81,3.18,4.06,4.06,0,0,0,2.41.78,5,5,0,0,0,1.3-.18,11.2,11.2,0,0,0,4.41-2.57c.62-.53,1.37-1.23,2.25-2.06S41.79,161,42.79,160s2.08-2.06,3.2-3.15l3.26-3.2,2.93-2.88a13.06,13.06,0,0,1,6.06-3.38,6.13,6.13,0,0,1,1.21-.12A8.31,8.31,0,0,1,64.24,149q3.53,2.48,3.56,5.76a27.7,27.7,0,0,1-1.34,8c-.33.91-.76,2-1.31,3.37s-1.12,2.75-1.76,4.26L61.51,175c-.61,1.5-1.19,2.9-1.71,4.19s-.93,2.39-1.24,3.29a10.1,10.1,0,0,0-.81,4.4,3.6,3.6,0,0,0,1.54,2.64,3.85,3.85,0,0,0,2.21.77A3.57,3.57,0,0,0,63,189.9a18.31,18.31,0,0,0,4.59-3.68c.59-.62,1.28-1.41,2.08-2.37s1.7-2,2.66-3.29,2-2.56,3-4,2.13-2.91,3.21-4.45,2.21-3.1,3.23-4.49,2-2.66,2.92-3.84,1.77-2.19,2.55-3.06a20.22,20.22,0,0,1,2.11-2.08,7.62,7.62,0,0,1,4.06-1.37h.18a7.26,7.26,0,0,1,4.09,1.48c2,1.44,3.13,3,3.27,4.78a17.4,17.4,0,0,1-1,6.55q-.87,2.22-2.13,4.7c-.82,1.67-1.73,3.37-2.74,5.14s-2.11,3.54-3.27,5.32-2.38,3.57-3.61,5.34c-1.49,2-3.07,4.09-4.72,6.14s-3.31,4-5,5.81c-.43.45-.84.86-1.25,1.3.13.34.24.65.37,1,.5,1.3,1,2.57,1.41,3.82.82,2.4,1.66,4.72,2.51,7s1.67,4.25,2.44,6a26.49,26.49,0,0,0,2.09,4.05,14.71,14.71,0,0,0,3.18,3.72,3.7,3.7,0,0,0,2.28.76,5,5,0,0,0,1.34-.2,4.29,4.29,0,0,0,2.77-2.52,11.11,11.11,0,0,0,.74-5.07c0-.8-.11-1.82-.2-3s-.22-2.52-.39-4-.32-2.93-.48-4.47-.3-3-.45-4.53-.3-2.84-.43-4.1a13,13,0,0,1,1.14-6.85,7.59,7.59,0,0,1,5-3.67,10.45,10.45,0,0,1,2.88-.45,6.12,6.12,0,0,1,3.85,1.26,28.16,28.16,0,0,1,5.43,6c.5.82,1.12,1.88,1.82,3.12l2.24,4c.79,1.43,1.59,2.86,2.38,4.3l2.2,3.95c.7,1.23,1.29,2.22,1.8,3a9.92,9.92,0,0,0,2.94,3.37,3.68,3.68,0,0,0,2,.6,3.59,3.59,0,0,0,1.06-.16,3.48,3.48,0,0,0,2.64-2.66,17.38,17.38,0,0,0,0-5.9c-.12-.82-.29-1.86-.53-3.09s-.55-2.6-.91-4.13-.79-3.15-1.25-4.86-1-3.48-1.48-5.29-1-3.67-1.49-5.32-.84-3.23-1.18-4.68-.62-2.76-.82-3.91a19.62,19.62,0,0,1-.3-2.94,7.78,7.78,0,0,1,1.46-4,7.16,7.16,0,0,1,3.81-2.41,10.11,10.11,0,0,1,2.77-.44,5.27,5.27,0,0,1,3,.85,17.55,17.55,0,0,1,4.49,4.87q1.2,2.07,2.38,4.59c.78,1.67,1.55,3.47,2.29,5.36s1.45,3.84,2.13,5.87,1.31,4.08,1.91,6.14q1,3.66,1.87,7.51c.57,2.57,1,5.09,1.42,7.53.09.63.17,1.19.25,1.79l1,.32c1.32.42,2.6.85,3.86,1.27,2.38.87,4.72,1.66,7,2.4s4.38,1.35,6.26,1.85a26.49,26.49,0,0,0,4.48.9,20.94,20.94,0,0,0,2.15.12,11.48,11.48,0,0,0,2.73-.29,3.91,3.91,0,0,0,2.7-2.47,4.29,4.29,0,0,0-.24-3.75,11.23,11.23,0,0,0-3.49-3.73c-.67-.48-1.5-1.06-2.51-1.74s-2.12-1.4-3.34-2.17L168.46,206l-3.83-2.47-3.46-2.22a13.14,13.14,0,0,1-4.66-5.15,7.77,7.77,0,0,1,.25-6.22c1.1-2.64,2.71-4.23,4.83-4.75a24.36,24.36,0,0,1,5.56-.55c.81,0,1.66,0,2.55.08s2.16.29,3.58.53,2.94.49,4.56.76l4.84.83,4.47.73c1.38.22,2.55.37,3.48.48a15.56,15.56,0,0,0,2,.15,7.73,7.73,0,0,0,2.43-.34,3.6,3.6,0,0,0,2.24-2.09,3.52,3.52,0,0,0-.44-3.73,17.58,17.58,0,0,0-4.62-3.67c-.72-.43-1.64-.91-2.75-1.5s-2.38-1.21-3.8-1.87-2.94-1.35-4.58-2.06-3.32-1.42-5.07-2.14-3.51-1.47-5.09-2.15-3-1.35-4.39-2-2.53-1.22-3.54-1.79a16.39,16.39,0,0,1-2.51-1.61,7.67,7.67,0,0,1-2.23-3.63,7,7,0,0,1,.49-4.49c.94-2.32,2.25-3.73,3.93-4.27a14.12,14.12,0,0,1,4.36-.58c.7,0,1.45,0,2.24.09,1.58.26,3.26.59,5.07,1s3.67.94,5.61,1.52,3.92,1.26,5.92,2,4,1.51,6,2.33c2.33,1,4.67,2.08,7,3.23s4.63,2.34,6.77,3.57c.56.32,1,.62,1.56.93l.87-.58c1.15-.77,2.28-1.51,3.4-2.22,2.16-1.32,4.24-2.66,6.24-4s3.79-2.59,5.35-3.74a26.16,26.16,0,0,0,3.49-2.94,14.45,14.45,0,0,0,2.92-3.92,3.93,3.93,0,0,0-.25-3.65,4.26,4.26,0,0,0-3.09-2.16,8,8,0,0,0-1.51-.14,13.41,13.41,0,0,0-3.58.55c-.78.22-1.76.52-2.93.88s-2.4.77-3.76,1.26l-4.25,1.45-4.31,1.46L202,148.61a16.44,16.44,0,0,1-4.52.72,9.2,9.2,0,0,1-2.41-.29,7.77,7.77,0,0,1-4.7-4.06c-1.39-2.52-1.63-4.76-.7-6.76a28.58,28.58,0,0,1,4.68-6.63c.69-.67,1.57-1.51,2.64-2.47s2.21-2,3.44-3.08l3.67-3.26,3.37-3.06c1-.94,1.87-1.75,2.53-2.42a9.93,9.93,0,0,0,2.63-3.59,3.56,3.56,0,0,0-.24-3.06,3.45,3.45,0,0,0-3.18-2h-.07a17.9,17.9,0,0,0-5.67,1.31c-.79.31-1.75.72-2.9,1.22s-2.43,1.11-3.83,1.81-2.9,1.45-4.45,2.29-3.18,1.71-4.84,2.63-3.34,1.82-4.86,2.64-2.95,1.53-4.29,2.19-2.55,1.21-3.62,1.65a17,17,0,0,1-2.82,1,9.26,9.26,0,0,1-1.27.09,7.22,7.22,0,0,1-3-.61,7,7,0,0,1-3.19-3.18c-1.22-2.17-1.51-4.1-.89-5.73a17.15,17.15,0,0,1,3.74-5.45c1.18-1.09,2.48-2.21,3.95-3.34s3-2.28,4.71-3.43,3.43-2.28,5.26-3.39,3.68-2.17,5.55-3.22c2.24-1.2,4.54-2.37,6.92-3.5s4.72-2.14,7-3c.6-.24,1.13-.43,1.7-.65,0-.35.06-.68.08-1,.12-1.37.25-2.72.39-4,.3-2.52.57-5,.77-7.39s.35-4.56.43-6.5a26.72,26.72,0,0,0-.14-4.56,14,14,0,0,0-1.25-4.71,3.89,3.89,0,0,0-3-2.1,4.59,4.59,0,0,0-.73-.06A4.38,4.38,0,0,0,196,60.64a11.52,11.52,0,0,0-2.87,4.24c-.31.76-.69,1.7-1.13,2.83s-.88,2.38-1.37,3.74-1,2.77-1.51,4.23-1,2.88-1.54,4.28-1,2.68-1.39,3.88a13.26,13.26,0,0,1-4,5.68,7,7,0,0,1-4.25,1.3,12.3,12.3,0,0,1-1.86-.16c-2.83-.48-4.74-1.69-5.71-3.66a28.21,28.21,0,0,1-2.26-7.79c-.11-1-.2-2.17-.3-3.61s-.17-3-.26-4.61-.18-3.28-.27-4.91-.19-3.14-.28-4.52-.19-2.57-.3-3.5a10.43,10.43,0,0,0-1.18-4.31A3.65,3.65,0,0,0,163,52a5.32,5.32,0,0,0-.78-.06,3.37,3.37,0,0,0-2.76,1.32,17.77,17.77,0,0,0-2.55,5.32c-.25.79-.54,1.8-.85,3s-.65,2.58-1,4.13-.66,3.16-1,4.91-.65,3.56-1,5.41-.65,3.75-1,5.45-.65,3.26-1,4.73-.65,2.74-1,3.85a18.51,18.51,0,0,1-1,2.79,7.68,7.68,0,0,1-3.06,3,6.42,6.42,0,0,1-2.93.65,9.44,9.44,0,0,1-1.55-.13q-3.69-.65-5-2.88a17.54,17.54,0,0,1-1.94-6.33c-.11-1.59-.16-3.33-.14-5.17s.11-3.79.25-5.82.36-4.1.65-6.22.58-4.24.94-6.36c.44-2.49,1-5,1.58-7.58s1.26-5,2-7.4c.17-.6.36-1.18.54-1.75-.26-.23-.49-.45-.74-.69-1-.94-2-1.89-2.92-2.82-1.78-1.81-3.54-3.54-5.29-5.21s-3.35-3.12-4.82-4.38a26.69,26.69,0,0,0-3.65-2.74,14,14,0,0,0-4.47-2,3.59,3.59,0,0,0-.79-.08,4,4,0,0,0-2.72,1.13,4.26,4.26,0,0,0-1.4,3.48,11.33,11.33,0,0,0,1.52,4.88c.4.71.89,1.59,1.5,2.65s1.31,2.19,2.08,3.4l2.36,3.81,2.38,3.89c.79,1.26,1.49,2.42,2.17,3.51a13.15,13.15,0,0,1,2,6.66,7.68,7.68,0,0,1-2.92,5.48,7.83,7.83,0,0,1-5.16,2.33M113.33,0h0A21.16,21.16,0,0,0,106,1.31a23.66,23.66,0,0,0-7.33,4.5l0,0a20.63,20.63,0,0,0-5.94,8.26,16.9,16.9,0,0,0-.56,9.18c0,.15.07.3.11.44a48.2,48.2,0,0,0,1.92,5.06c.75,1.66,1.58,3.39,2.57,5.32s2,3.74,3,5.39l.16.29L98.74,39l0,0c-1.61-1-3.33-2.12-5.11-3.18S90,33.78,88.39,33a36.11,36.11,0,0,0-4.8-2l-.09,0a16.84,16.84,0,0,0-9.42-.17,20.38,20.38,0,0,0-8.28,4.68,28.71,28.71,0,0,0-5.54,6.73,21.1,21.1,0,0,0-2.07,4.66l-.83,0c-2,.1-4,.24-6,.38h-.13c-3.92.27-7.73.72-11.34,1.33A76.89,76.89,0,0,0,29.84,51a33.86,33.86,0,0,0-8,3.52,26,26,0,0,0-6.48,5.27A21.06,21.06,0,0,0,11.22,67a22.66,22.66,0,0,0-1.05,8.55,20.87,20.87,0,0,0,2.76,9.82,17,17,0,0,0,6.79,6.15,5,5,0,0,0,.48.21,48,48,0,0,0,5.14,1.63c1.73.46,3.63.89,5.77,1.31s4.14.77,6,1.06l.31,0-1.33.43c-2,.66-3.91,1.33-5.75,2-2,.78-3.8,1.53-5.39,2.28a35.66,35.66,0,0,0-4.58,2.52l0,0a16.73,16.73,0,0,0-6,7.24,20.42,20.42,0,0,0-1.51,9.42,28.56,28.56,0,0,0,1.81,8.53A21.27,21.27,0,0,0,17,132.82c-.16.22-.32.45-.49.67-1.33,1.85-2.47,3.5-3.5,5a111.51,111.51,0,0,0-6,9.67,75.84,75.84,0,0,0-4.47,9.38A35,35,0,0,0,.31,166a25.33,25.33,0,0,0,.08,8.39,20.79,20.79,0,0,0,3.1,7.73,22.94,22.94,0,0,0,6,6.14A20.28,20.28,0,0,0,19,192.22a14.6,14.6,0,0,0,1.9.11A17.13,17.13,0,0,0,28,190.75a5.39,5.39,0,0,0,.48-.25,49.18,49.18,0,0,0,4.43-3c1.54-1.15,3.1-2.39,4.64-3.7s2.89-2.52,4.55-4l.27-.24c-.16.42-.33.86-.5,1.32-.71,1.91-1.38,3.84-2,5.75s-1.1,3.65-1.58,5.6a38.06,38.06,0,0,0-.88,5.17v.1a16.69,16.69,0,0,0,1.93,9.2,20.35,20.35,0,0,0,6.41,7,29.26,29.26,0,0,0,7.8,3.91,21,21,0,0,0,5,1l.21.79c.51,1.84,1.08,3.78,1.74,5.9,1.15,3.77,2.44,7.39,3.81,10.71a73.1,73.1,0,0,0,4.56,9.33,34.39,34.39,0,0,0,5.2,7,25.1,25.1,0,0,0,6.65,5.18,20.66,20.66,0,0,0,8,2.38c.61.06,1.28.09,1.94.09a23.5,23.5,0,0,0,6.59-1,20.55,20.55,0,0,0,9-4.85,17.14,17.14,0,0,0,4.5-8c0-.17.07-.34.1-.51a47.81,47.81,0,0,0,.44-5.38c.06-1.69.06-3.64,0-5.9s-.17-4.18-.31-6.1l0-.33c.23.39.46.79.71,1.2l0,0c1.08,1.77,2.17,3.47,3.23,5.07s2.28,3.28,3.45,4.78a35.16,35.16,0,0,0,3.47,3.9l.08.07a16.8,16.8,0,0,0,8.38,4.21,18.86,18.86,0,0,0,3.37.31,22.13,22.13,0,0,0,6.15-.93,29.26,29.26,0,0,0,7.91-3.67,20.68,20.68,0,0,0,3.88-3.3l.74.32c1.86.79,3.78,1.58,5.7,2.32,3.56,1.42,7.19,2.67,10.77,3.71a75.26,75.26,0,0,0,10.14,2.25,40.37,40.37,0,0,0,5.84.46,26.52,26.52,0,0,0,2.88-.15,25.83,25.83,0,0,0,8.15-1.94,21.29,21.29,0,0,0,6.84-4.73,23.11,23.11,0,0,0,4.65-7.28,20.63,20.63,0,0,0,1.77-10,16.91,16.91,0,0,0-3.44-8.49l-.32-.37A47.1,47.1,0,0,0,201.3,212c-1.36-1.16-2.87-2.36-4.65-3.69-1.56-1.17-3.23-2.37-5-3.57l-.28-.19,1.36.19c1.93.26,3.89.47,6,.66s4,.26,5.89.27h.48a34.76,34.76,0,0,0,4.73-.29H210a16.92,16.92,0,0,0,8.54-3.91,20.67,20.67,0,0,0,5.45-7.84,28.75,28.75,0,0,0,2.08-8.5,22,22,0,0,0-.17-5.06l.69-.37c2-1.09,3.92-2.19,5.36-3,3.32-1.88,6.56-3.93,9.63-6.09a74.92,74.92,0,0,0,8.09-6.54,35.07,35.07,0,0,0,5.69-6.63,25.48,25.48,0,0,0,3.55-7.6,21.34,21.34,0,0,0,.58-8.27,23.38,23.38,0,0,0-2.77-8.16,20.5,20.5,0,0,0-6.76-7.66,16.63,16.63,0,0,0-8.79-2.58h-.1l-.38,0a44.68,44.68,0,0,0-5.39.76c-1.74.33-3.7.78-5.76,1.33-1.91.48-3.9,1-5.88,1.66l-.3.09c.33-.31.67-.63,1-1,1.49-1.43,2.88-2.84,4.28-4.32s2.63-2.88,3.86-4.38a35.69,35.69,0,0,0,3-4.28l0-.06a16.73,16.73,0,0,0,2.26-9.14,20.42,20.42,0,0,0-2.72-9.14,29,29,0,0,0-5.32-6.89,21.55,21.55,0,0,0-4.09-3l.15-.84c.41-2.33.72-4.25,1-6,.6-3.86,1-7.67,1.23-11.31a75.93,75.93,0,0,0,0-10.38,34.21,34.21,0,0,0-1.65-8.58,25.27,25.27,0,0,0-3.71-7.52,20.88,20.88,0,0,0-6.14-5.61,22.63,22.63,0,0,0-8.12-2.93,26.51,26.51,0,0,0-4.41-.39,17.53,17.53,0,0,0-5.76.9,16.83,16.83,0,0,0-7.51,5.26,3.79,3.79,0,0,0-.3.4,48.25,48.25,0,0,0-2.75,4.66c-1,1.88-1.8,3.62-2.55,5.35s-1.63,3.75-2.37,5.62l-.12.31c0-.46-.08-.92-.12-1.4-.2-2.14-.43-4.11-.71-6-.3-2.1-.63-4-1-5.76a34.78,34.78,0,0,0-1.42-5,.36.36,0,0,1,0-.09,16.8,16.8,0,0,0-5.74-7.47,20.44,20.44,0,0,0-8.84-3.57,29.63,29.63,0,0,0-4.84-.4,27.79,27.79,0,0,0-3.88.27,21,21,0,0,0-4.92,1.29l-.55-.63c-1.46-1.65-2.8-3.13-4.11-4.52a113.37,113.37,0,0,0-8.09-8,75.36,75.36,0,0,0-8.16-6.43,34.65,34.65,0,0,0-7.73-4.07A25.89,25.89,0,0,0,114.25,0l-.92,0Zm6.32,36.13a10.57,10.57,0,0,1-.73-1.66,15.65,15.65,0,0,1,1.56.85l.14.09a20.53,20.53,0,0,1,2.88,2.19c1.36,1.17,2.88,2.55,4.65,4.22s3.5,3.4,5.16,5.09c.5.51,1,1,1.53,1.51-.61,2.08-1.18,4.26-1.7,6.51-.31,1.33-.6,2.6-.86,3.83a21.87,21.87,0,0,0-2.15-5.38l-.15-.25-.92-1.5-1.25-2-1.29-2.11-1.06-1.74-.57-.92-1.82-2.93c-.75-1.19-1.42-2.27-2-3.27s-1-1.78-1.38-2.44l0-.08Zm42,24c.06-.19.13-.38.19-.55.06.61.12,1.36.18,2.27.09,1.38.18,2.87.28,4.48l0,.32c.08,1.51.17,3,.24,4.54v0l.1,1.78c.06,1,.11,1.92.16,2.82v.05c.11,1.67.2,2.85.32,3.84l0,.26a32.56,32.56,0,0,0,2.71,9.19c1.18,2.39,3.77,5.43,9.37,6.37a16.83,16.83,0,0,0,2.68.23c.36,0,.71,0,1.05,0l-.44.26c-1.92,1.16-3.78,2.36-5.51,3.55-1.95,1.34-3.53,2.49-5,3.62s-2.86,2.31-4.25,3.59c-.08.08-.17.16-.25.25a21.68,21.68,0,0,0-4.78,7.12c-.8,2.08-1.25,5.53,1.2,9.92a11.94,11.94,0,0,0,5.51,5.31,12.29,12.29,0,0,0,5,1,14.73,14.73,0,0,0,2-.14l.36-.06a22.15,22.15,0,0,0,3.67-1.21c1.11-.46,2.39-1,3.91-1.79s3.06-1.53,4.43-2.26l.36-.2c1.46-.78,3-1.59,4.6-2.5s3.26-1.79,4.74-2.57c1.3-.7,2.67-1.41,4.33-2.22,1.18-.6,2.35-1.16,3.64-1.73,1.1-.48,2-.85,2.64-1.12l.51-.18c-.44.43-1,.94-1.68,1.58l-.74.67c-.81.74-1.66,1.52-2.57,2.33l-3.65,3.24-1,.92-2.46,2.21c-1,.87-1.91,1.75-2.78,2.6a2.61,2.61,0,0,0-.22.24,33,33,0,0,0-5.49,7.84c-1.12,2.42-1.88,6.33.84,11.29l0,0a15.88,15.88,0,0,0,2.17,3l-.49-.18c-2-.75-4-1.44-6.19-2.11s-4.15-1.19-5.92-1.61-3.62-.8-5.43-1.09l-.39-.05c-.92-.07-1.81-.11-2.64-.11a18.72,18.72,0,0,0-5.9.83c-2.17.69-5.13,2.49-7,7.13a11.87,11.87,0,0,0-.71,7.61,12.58,12.58,0,0,0,3.65,6l.3.26a21.3,21.3,0,0,0,3.23,2.09c1.1.62,2.4,1.28,3.84,2,1.24.59,2.68,1.25,4.49,2,1.52.65,3.29,1.41,5.21,2.19,1.62.68,3.35,1.4,5,2.1s3.11,1.38,4.49,2c1.19.56,2.37,1.14,3.58,1.77s1.94,1,2.49,1.35l.48.3-2.26-.33-1-.17-3.41-.55-2.62-.45-2.18-.38-1.72-.29-2.91-.48c-1.29-.21-2.54-.4-3.72-.55l-.36,0c-1-.05-1.94-.08-2.84-.08a29.1,29.1,0,0,0-6.7.68c-2.61.64-6.13,2.48-8.31,7.7a16,16,0,0,0-1,3.64c-.05-.18-.11-.35-.17-.52-.82-2.45-1.52-4.4-2.22-6.13-.77-2-1.59-3.87-2.42-5.64s-1.7-3.47-2.57-5l-.18-.29a22.06,22.06,0,0,0-5.87-6.23,10.19,10.19,0,0,0-5.78-1.69,15.1,15.1,0,0,0-4.16.64,12,12,0,0,0-6.4,4.19,12.64,12.64,0,0,0-2.46,6.6,3.33,3.33,0,0,0,0,.55,25.64,25.64,0,0,0,.36,3.67v0c.24,1.35.54,2.76.88,4.19s.76,3.1,1.21,4.79.92,3.35,1.53,5.45c.54,1.86,1,3.55,1.45,5.17.49,1.84.88,3.34,1.21,4.74s.61,2.64.88,3.95c.18.94.34,1.88.48,2.8,0,.19.05.38.07.55-.38-.63-.76-1.28-1.15-2l-.41-.73-1.78-3.19-1.19-2.15-1.18-2.13c-.81-1.46-1.54-2.79-2.23-4l0-.06c-.81-1.43-1.42-2.47-1.91-3.27l-.17-.25a32.86,32.86,0,0,0-6.44-7.11,11,11,0,0,0-6.93-2.32,15.52,15.52,0,0,0-4.28.65,15.81,15.81,0,0,0-3.45,1.44c.1-.15.2-.3.29-.45,1.26-1.92,2.42-3.8,3.42-5.56,1.1-1.93,2-3.69,2.88-5.39s1.66-3.47,2.3-5.1c0-.11.08-.23.12-.34a22,22,0,0,0,1.2-8.49c-.18-2.21-1.26-5.51-5.37-8.41a12.06,12.06,0,0,0-7-2.4h-.33a12.57,12.57,0,0,0-6.69,2.2l-.4.31a23.86,23.86,0,0,0-2.67,2.61c-.8.9-1.69,2-2.72,3.26l0,.06c-.8,1-1.85,2.41-3,3.93-.95,1.29-2,2.74-3.29,4.57-1,1.42-2,2.85-3.15,4.38s-2.1,2.81-2.93,3.85l0,.06c-1,1.3-1.8,2.28-2.49,3.07l0,.07c-.72.86-1.34,1.56-1.85,2.1l-.4.41c.24-.65.51-1.36.83-2.15s.74-1.82,1.15-2.82l.54-1.32c.44-1.08.88-2.15,1.33-3.23l.53-1.28c.61-1.43,1.19-2.85,1.78-4.32s1.09-2.75,1.38-3.55c0-.1.07-.19.1-.29a32.45,32.45,0,0,0,1.54-9.5c0-2.63-1-6.5-5.68-9.78a15.61,15.61,0,0,0-3.28-1.8l.53-.05c2.19-.21,4.36-.47,6.46-.78,2.25-.36,4.21-.72,6-1.12,2-.44,3.82-.9,5.44-1.4l.3-.11a21.87,21.87,0,0,0,7.4-4.33c2.37-2.26,3.46-5.44,3.23-9.47a12,12,0,0,0-2.63-7.14l0-.06a12.63,12.63,0,0,0-5.86-3.83,4.1,4.1,0,0,0-.5-.14,23.91,23.91,0,0,0-3.72-.46c-1.11-.06-2.28-.09-3.5-.09h-.81c-1.37,0-2.94,0-5,.13-1.5,0-3.5.13-5.66.27s-3.79.21-5.34.26c-2,.08-3.53.11-4.9.13H54.15c-1,0-1.89,0-2.85,0s-2-.08-2.85-.14l-.54-.06c.61-.21,1.34-.44,2.16-.69l4.32-1.27,4.66-1.34c1.64-.46,3.11-.89,4.51-1.31,1.61-.48,2.77-.84,3.66-1.15l.27-.1a32.81,32.81,0,0,0,8.36-4.69c2.07-1.68,4.46-4.88,4.12-10.55a15.63,15.63,0,0,0-.64-3.7c.11.13.23.25.35.37,1.51,1.58,3,3.08,4.67,4.59s3.17,2.82,4.64,4c1.62,1.32,3.09,2.43,4.48,3.38l.28.17a22.4,22.4,0,0,0,8,3.08,11.1,11.1,0,0,0,1.37.09,12.06,12.06,0,0,0,8.09-3.48,11.91,11.91,0,0,0,4-6.53,12.52,12.52,0,0,0-.67-7c0-.14-.11-.28-.17-.41a23.39,23.39,0,0,0-2-3.23c-.67-1-1.5-2-2.6-3.4s-2.21-2.66-3.19-3.81c-1.19-1.39-2.5-2.86-3.73-4.24s-2.53-2.84-3.57-4C98,68,97,66.79,96.08,65.67s-1.78-2.2-2.49-3.16-1.3-1.78-1.68-2.33l-.29-.47c.55.36,1.18.78,1.88,1.27l1.22.86,2.48,1.73,1.63,1.16,2.33,1.66c1.18.85,2.3,1.63,3.35,2.37l.45.32c1.19.84,2.27,1.57,3.21,2.16a1.28,1.28,0,0,0,.25.15A32.71,32.71,0,0,0,117.31,75a11,11,0,0,0,2.3.25,12.6,12.6,0,0,0,8.51-3.62,16.31,16.31,0,0,0,2.48-2.79c0,.17,0,.35-.07.53-.31,2.31-.53,4.45-.68,6.5s-.22,4-.26,6.09,0,3.88.15,5.59c0,.13,0,.25,0,.38a22.15,22.15,0,0,0,2.59,8.16c1.16,1.94,3.57,4.4,8.48,5.25h.06a14.72,14.72,0,0,0,2.35.2,11.35,11.35,0,0,0,5.19-1.19l.07,0a12.55,12.55,0,0,0,5-4.9c.08-.13.15-.27.22-.41a23.88,23.88,0,0,0,1.29-3.55c.4-1.42.74-2.78,1-4.16s.65-3.07,1-4.86.66-3.55,1-5.56c.25-1.47.59-3.42.94-5.29.32-1.7.65-3.31,1-4.79s.59-2.63.93-3.92c.29-1.12.54-2,.76-2.71Zm36.1,6.67a10.47,10.47,0,0,1,.85-1.62,15.48,15.48,0,0,1,.3,1.75l0,.18a22.21,22.21,0,0,1,.08,3.63c-.07,1.82-.21,3.93-.41,6.24-.18,2.08-.42,4.37-.75,7.22v.05c-.07.68-.14,1.38-.21,2.08-2,.82-4.05,1.72-6.14,2.71-1.2.56-2.39,1.15-3.57,1.75a21.58,21.58,0,0,0,2.9-5.07l.09-.25.17-.48c.38-1,.77-2.17,1.2-3.36l.56-1.55c.33-.91.67-1.83,1-2.77.49-1.32,1-2.76,1.51-4.23.48-1.31.92-2.52,1.33-3.62s.77-2,1.07-2.66ZM45.18,77.6c.42-.2,1-.44,1.68-.7l0,0a22.63,22.63,0,0,1,3.57-.9c1.85-.35,3.93-.68,6.2-1,2.49-.34,4.84-.62,7.17-.86H64c.74-.09,1.42-.17,2.05-.26,1.27,1.8,2.62,3.6,4,5.38.85,1.07,1.67,2.09,2.48,3.07a21.92,21.92,0,0,0-5.56-1.67l-.3,0-2.18-.26-1.89-.23-2.66-.32-1.81-.23c-1.4-.18-2.84-.35-4.54-.54-1.2-.13-2.41-.29-3.79-.48-1.14-.17-2.09-.32-2.82-.45a9.7,9.7,0,0,1-1.77-.48ZM32.93,162.16a16.05,16.05,0,0,1,.49-1.74s0-.07,0-.11A19.48,19.48,0,0,1,35,157c.86-1.61,1.87-3.41,3.1-5.49s2.56-4.23,3.8-6.16l0-.06c.39-.62.75-1.21,1.09-1.77,2.19.13,4.44.2,6.73.21h1c1,0,2,0,2.92,0A21.82,21.82,0,0,0,48.86,147l-.19.17-2.93,2.89-.17.17-3.06,3c-.75.72-1.46,1.43-2.16,2.12l-1.06,1.06-.06.05c-.93.94-1.82,1.79-2.72,2.65s-1.55,1.44-2.1,1.92a10.36,10.36,0,0,1-1.48,1.1Zm164.67-7.83a21.48,21.48,0,0,0,5.77-.91l.23-.07,3.88-1.32,4.12-1.4.21-.07c1.45-.48,2.89-1,4.27-1.45l.07,0c1.36-.49,2.62-.89,3.57-1.19,1.14-.36,2.06-.64,2.77-.84a10.49,10.49,0,0,1,1.79-.34,16.38,16.38,0,0,1-1.2,1.35.23.23,0,0,1-.07.07,21,21,0,0,1-2.8,2.34c-1.55,1.14-3.28,2.35-5.17,3.6-2.18,1.44-4.17,2.72-6.08,3.89l-.07,0c-.58.36-1.17.74-1.76,1.13-1.9-1.06-3.91-2.1-6-3.11-1.24-.6-2.42-1.16-3.56-1.69ZM83.1,205c1.42-1.57,2.85-3.25,4.35-5.11q1.26-1.56,2.46-3.12a21.74,21.74,0,0,0-.4,5.83,1.64,1.64,0,0,0,0,.22c.12,1.27.27,2.65.43,4.13.09.86.17,1.74.26,2.63.06.62.13,1.25.19,1.88.16,1.55.32,3.06.48,4.51V216c.16,1.27.28,2.49.37,3.74.09,1,.17,2.12.2,2.85a9.37,9.37,0,0,1-.07,1.87c-.29-.36-.64-.84-1-1.47a.35.35,0,0,0,0-.08,22,22,0,0,1-1.66-3.25c-.78-1.81-1.57-3.78-2.35-5.83-.89-2.37-1.69-4.61-2.44-6.82l0-.07-.72-2Zm73.05,6.95c-.36-2.18-.79-4.39-1.28-6.6-.31-1.37-.61-2.65-.92-3.87a21.41,21.41,0,0,0,4.33,4l.17.12,3.51,2.25,1.1.71c.88.56,1.77,1.13,2.67,1.72l.06,0,3.21,2,.57.36.18.11c1.09.7,2.12,1.36,3,2l0,0c.85.56,1.65,1.12,2.39,1.65a9,9,0,0,1,1.36,1.17h-.15a16.3,16.3,0,0,1-1.63-.09h-.1a22.47,22.47,0,0,1-3.62-.75c-1.84-.49-3.86-1.09-6-1.78-2.64-.86-4.81-1.6-6.83-2.34l-.11,0-2-.66Z"/><path class="cls-1" d="M229.57,147.64a14.45,14.45,0,0,1-2.92,3.92,26.16,26.16,0,0,1-3.49,2.94q-2.34,1.73-5.35,3.74c-2,1.32-4.08,2.66-6.24,4-1.12.71-2.25,1.45-3.4,2.22l-.87.58c-.52-.31-1-.61-1.56-.93q-3.21-1.84-6.77-3.57c-2.36-1.15-4.7-2.24-7-3.23-2-.82-4-1.61-6-2.33s-4-1.42-5.92-2-3.81-1.1-5.61-1.52-3.49-.77-5.07-1a17.17,17.17,0,0,0-6.6.49c-1.68.54-3,2-3.93,4.27a7,7,0,0,0-.49,4.49,7.67,7.67,0,0,0,2.23,3.63,16.39,16.39,0,0,0,2.51,1.61c1,.57,2.19,1.17,3.54,1.79s2.82,1.31,4.39,2,3.28,1.41,5.09,2.15,3.45,1.43,5.07,2.14,3.15,1.4,4.58,2.06,2.68,1.29,3.8,1.87,2,1.07,2.75,1.5a17.58,17.58,0,0,1,4.62,3.67,3.52,3.52,0,0,1,.44,3.73,3.6,3.6,0,0,1-2.24,2.09,10.16,10.16,0,0,1-4.47.19c-.93-.11-2.1-.26-3.48-.49s-2.87-.45-4.47-.72l-4.84-.83c-1.62-.27-3.15-.54-4.56-.76s-2.62-.41-3.58-.53a28.67,28.67,0,0,0-8.11.47c-2.12.52-3.73,2.11-4.83,4.75a7.77,7.77,0,0,0-.25,6.22,13.14,13.14,0,0,0,4.66,5.15l3.46,2.22,3.83,2.47,3.79,2.41c1.22.77,2.33,1.48,3.34,2.17s1.84,1.26,2.51,1.74a11.23,11.23,0,0,1,3.49,3.73,4.29,4.29,0,0,1,.24,3.75,3.91,3.91,0,0,1-2.7,2.47,14.51,14.51,0,0,1-4.88.17,26.49,26.49,0,0,1-4.48-.9c-1.88-.5-4-1.11-6.26-1.85s-4.62-1.53-7-2.4c-1.26-.42-2.54-.85-3.86-1.27l-1-.32c-.08-.6-.16-1.16-.25-1.79-.38-2.44-.85-5-1.42-7.53s-1.2-5.07-1.87-7.51c-.6-2.06-1.23-4.13-1.91-6.14s-1.37-4-2.13-5.87-1.51-3.69-2.29-5.36-1.58-3.21-2.38-4.59a17.55,17.55,0,0,0-4.49-4.87c-1.46-1-3.38-1.1-5.78-.41a7.16,7.16,0,0,0-3.81,2.41,7.78,7.78,0,0,0-1.46,4,19.62,19.62,0,0,0,.3,2.94c.2,1.15.47,2.46.82,3.91s.74,3,1.18,4.68.94,3.43,1.49,5.32,1,3.57,1.48,5.29.88,3.34,1.25,4.86.66,2.9.91,4.13.41,2.27.53,3.09a17.38,17.38,0,0,1,0,5.9,3.48,3.48,0,0,1-2.64,2.66,3.55,3.55,0,0,1-3-.44,9.92,9.92,0,0,1-2.94-3.37c-.51-.8-1.1-1.79-1.8-3l-2.2-3.95c-.79-1.44-1.59-2.87-2.38-4.3l-2.24-4c-.7-1.24-1.32-2.3-1.82-3.12a28.16,28.16,0,0,0-5.43-6c-1.74-1.34-4-1.61-6.73-.81a7.59,7.59,0,0,0-5,3.67,13,13,0,0,0-1.14,6.85c.13,1.26.27,2.63.43,4.1s.3,3,.45,4.53.32,3,.48,4.47.3,2.74.39,4,.17,2.24.2,3a11.11,11.11,0,0,1-.74,5.07A4.29,4.29,0,0,1,92.94,230a3.92,3.92,0,0,1-3.62-.56,14.71,14.71,0,0,1-3.18-3.72,26.49,26.49,0,0,1-2.09-4.05c-.77-1.79-1.59-3.81-2.44-6s-1.69-4.59-2.51-7c-.44-1.25-.91-2.52-1.41-3.82-.13-.31-.24-.62-.37-1,.41-.44.82-.85,1.25-1.3q2.52-2.75,5-5.81c1.65-2.05,3.23-4.1,4.72-6.14,1.23-1.77,2.44-3.55,3.61-5.34s2.27-3.56,3.27-5.32,1.92-3.47,2.74-5.14,1.55-3.22,2.13-4.7a17.4,17.4,0,0,0,1-6.55c-.14-1.75-1.24-3.34-3.27-4.78a7.15,7.15,0,0,0-4.27-1.48,7.62,7.62,0,0,0-4.06,1.37,20.22,20.22,0,0,0-2.11,2.08q-1.17,1.31-2.55,3.06c-.92,1.18-1.89,2.45-2.92,3.84s-2.09,2.88-3.23,4.49-2.15,3-3.21,4.45-2.06,2.77-3,4-1.84,2.35-2.66,3.29-1.49,1.75-2.08,2.37A18.31,18.31,0,0,1,63,189.9a3.49,3.49,0,0,1-3.74-.41,3.6,3.6,0,0,1-1.54-2.64,10.1,10.1,0,0,1,.81-4.4c.31-.9.72-2,1.24-3.29s1.1-2.69,1.71-4.19l1.88-4.55q1-2.26,1.76-4.26c.55-1.33,1-2.46,1.31-3.37a27.7,27.7,0,0,0,1.34-8q0-3.28-3.56-5.76a7.63,7.63,0,0,0-6-1.62,13.06,13.06,0,0,0-6.06,3.38l-2.93,2.88L46,156.85c-1.12,1.09-2.17,2.14-3.2,3.15s-2,1.94-2.85,2.77-1.63,1.53-2.25,2.06a11.2,11.2,0,0,1-4.41,2.57,4.26,4.26,0,0,1-3.71-.6,3.9,3.9,0,0,1-1.81-3.18,14.37,14.37,0,0,1,.93-4.8,25.94,25.94,0,0,1,1.85-4.16c.92-1.72,2-3.6,3.22-5.68s2.52-4.18,3.88-6.32c.7-1.11,1.41-2.28,2.1-3.46.19-.32.36-.6.53-.9l1.8.16c2.47.17,5,.27,7.67.28s5.21,0,7.73-.14q3.24-.19,6.42-.5c2.13-.21,4.19-.46,6.21-.76s3.9-.66,5.71-1.05,3.5-.82,5-1.3a17.21,17.21,0,0,0,5.75-3.29c1.27-1.21,1.82-3,1.68-5.55a7.26,7.26,0,0,0-1.49-4.26,7.84,7.84,0,0,0-3.61-2.31,19.33,19.33,0,0,0-2.94-.36c-1.17-.07-2.49-.1-4-.08s-3.1.06-4.82.13-3.56.14-5.52.26-3.72.21-5.48.27-3.45.11-5,.13-3,0-4.23,0-2.3-.09-3.13-.15a18,18,0,0,1-5.75-1.31,3.51,3.51,0,0,1-2-3.18,3.64,3.64,0,0,1,1.12-2.85,9.87,9.87,0,0,1,3.94-2.09c.88-.32,2-.68,3.34-1.09L53,107.94l4.72-1.35,4.45-1.29c1.36-.41,2.53-.77,3.44-1.09a28.31,28.31,0,0,0,7.1-3.93c1.71-1.39,2.46-3.52,2.29-6.38a7.69,7.69,0,0,0-2.46-5.72,13.35,13.35,0,0,0-6.44-2.63L62,85.07l-4.52-.56c-1.54-.2-3-.37-4.46-.53s-2.74-.33-3.95-.5-2.2-.34-3-.48a11.32,11.32,0,0,1-4.75-1.85,4.22,4.22,0,0,1-1.84-3.26,3.86,3.86,0,0,1,1.35-3.41,14.62,14.62,0,0,1,4.33-2.28,27.71,27.71,0,0,1,4.41-1.13c1.92-.36,4.06-.71,6.44-1s4.85-.63,7.37-.88c1.3-.16,2.66-.33,4-.54l1-.14,1,1.51c1.42,2,2.93,4.1,4.55,6.16s3.28,4.06,5,6c1.45,1.6,2.91,3.16,4.39,4.7s3,3,4.46,4.38,3,2.65,4.39,3.81,2.82,2.22,4.14,3.12a17.73,17.73,0,0,0,6.14,2.44c1.75.24,3.54-.49,5.4-2.16a7.07,7.07,0,0,0,2.4-3.82,7.75,7.75,0,0,0-.44-4.26,19.48,19.48,0,0,0-1.56-2.53c-.66-1-1.48-2-2.41-3.15s-2-2.39-3.1-3.7-2.35-2.69-3.66-4.16S96.58,74,95.42,72.66,93.18,70,92.19,68.82s-1.86-2.32-2.62-3.33-1.35-1.85-1.82-2.55a17.71,17.71,0,0,1-2.57-5.3,3.77,3.77,0,0,1,4.14-4.46,10,10,0,0,1,4.11,1.76c.8.49,1.78,1.14,2.93,1.94l3.72,2.6,4,2.85c1.33,1,2.59,1.84,3.76,2.66s2.19,1.51,3,2a28.37,28.37,0,0,0,7.51,3.09c2.14.47,4.28-.27,6.41-2.19a7.68,7.68,0,0,0,2.92-5.48,13.15,13.15,0,0,0-2-6.66c-.68-1.09-1.38-2.25-2.17-3.51l-2.38-3.89-2.36-3.81c-.77-1.21-1.47-2.35-2.08-3.4s-1.1-1.94-1.5-2.65a11.33,11.33,0,0,1-1.52-4.88,4.26,4.26,0,0,1,1.4-3.48,3.87,3.87,0,0,1,3.51-1.05,14,14,0,0,1,4.47,2,26.69,26.69,0,0,1,3.65,2.74c1.47,1.26,3.08,2.73,4.82,4.38s3.51,3.4,5.29,5.21c.93.93,1.91,1.88,2.92,2.82.25.24.48.46.74.69-.18.57-.37,1.15-.54,1.75-.72,2.36-1.38,4.84-2,7.4s-1.14,5.09-1.58,7.58c-.36,2.12-.67,4.25-.94,6.36s-.51,4.19-.65,6.22-.22,4-.25,5.82,0,3.58.14,5.17a17.54,17.54,0,0,0,1.94,6.33q1.35,2.23,5,2.88a7.2,7.2,0,0,0,4.48-.52,7.68,7.68,0,0,0,3.06-3,18.51,18.51,0,0,0,1-2.79c.31-1.11.64-2.39,1-3.85s.64-3,1-4.73.64-3.51,1-5.45.63-3.66,1-5.41.66-3.39,1-4.91.66-2.92,1-4.13.6-2.22.85-3a17.77,17.77,0,0,1,2.55-5.32A3.52,3.52,0,0,1,163,52a3.65,3.65,0,0,1,2.54,1.72,10.43,10.43,0,0,1,1.18,4.31c.11.93.2,2.1.3,3.5s.19,2.89.28,4.52.19,3.26.27,4.91.19,3.18.26,4.61.19,2.63.3,3.61A28.21,28.21,0,0,0,170.4,87c1,2,2.88,3.18,5.71,3.66a7.8,7.8,0,0,0,6.11-1.14,13.26,13.26,0,0,0,4-5.68c.43-1.2.88-2.49,1.39-3.88s1-2.81,1.54-4.28,1-2.88,1.51-4.23.94-2.6,1.37-3.74.82-2.07,1.13-2.83A11.52,11.52,0,0,1,196,60.64a4.29,4.29,0,0,1,3.59-1.07,3.89,3.89,0,0,1,3,2.1,14,14,0,0,1,1.25,4.71,26.72,26.72,0,0,1,.14,4.56q-.12,2.91-.43,6.5c-.2,2.41-.47,4.87-.77,7.39-.14,1.31-.27,2.66-.39,4,0,.36-.05.69-.08,1-.57.22-1.1.41-1.7.65-2.3.91-4.65,1.93-7,3s-4.68,2.3-6.92,3.5c-1.87,1.05-3.73,2.12-5.55,3.22s-3.59,2.24-5.26,3.39-3.25,2.28-4.71,3.43-2.77,2.25-3.95,3.34a17.15,17.15,0,0,0-3.74,5.45c-.62,1.63-.33,3.56.89,5.73a7,7,0,0,0,3.19,3.18,7.63,7.63,0,0,0,4.25.52,17,17,0,0,0,2.82-1c1.07-.44,2.27-1,3.62-1.65s2.78-1.39,4.29-2.19,3.15-1.68,4.86-2.64,3.26-1.8,4.84-2.63,3-1.59,4.45-2.29,2.69-1.3,3.83-1.81,2.11-.91,2.9-1.22a17.43,17.43,0,0,1,5.74-1.31,3.45,3.45,0,0,1,3.18,2,3.56,3.56,0,0,1,.24,3.06A9.93,9.93,0,0,1,210,117.3c-.66.67-1.51,1.48-2.53,2.42l-3.37,3.06L200.41,126c-1.23,1.1-2.38,2.12-3.44,3.08s-1.95,1.8-2.64,2.47a28.58,28.58,0,0,0-4.68,6.63c-.93,2-.69,4.24.7,6.76a7.77,7.77,0,0,0,4.7,4.06,13.11,13.11,0,0,0,6.93-.43l3.91-1.32,4.31-1.46,4.25-1.45c1.36-.49,2.62-.9,3.76-1.26s2.15-.66,2.93-.88a11.33,11.33,0,0,1,5.09-.41,4.26,4.26,0,0,1,3.09,2.16A3.93,3.93,0,0,1,229.57,147.64Z"/><path d="M390,90.7a2.89,2.89,0,0,1-1.89-.59,3.37,3.37,0,0,1-1-1.69,9.48,9.48,0,0,1-.32-2.6q0-1.06.06-2.31T387,81c.1-.87.23-1.75.38-2.62s.33-1.72.55-2.53a17.61,17.61,0,0,1,.75-2.26A11.84,11.84,0,0,1,392,69a7.39,7.39,0,0,1,4.71-1.55,5.08,5.08,0,0,1,3.11.92,7.26,7.26,0,0,1,2,2.42A17.77,17.77,0,0,1,403.18,74a12.37,12.37,0,0,0,.94,2.15c.34.62.73.93,1.18.93a2.06,2.06,0,0,0,1.51-.85,13.36,13.36,0,0,0,1.54-2.28,24.83,24.83,0,0,1,2.16-3.3,8.42,8.42,0,0,1,2.54-2.18,6.86,6.86,0,0,1,3.4-.79,6.17,6.17,0,0,1,4.36,1.51,8.66,8.66,0,0,1,2.37,4.09,20.71,20.71,0,0,1,.74,5.8c0,.74,0,1.52-.06,2.31s-.1,1.57-.16,2.35-.16,1.52-.28,2.23a19.45,19.45,0,0,1-.42,2,4.3,4.3,0,0,1-1.23,2.1,3,3,0,0,1-2,.65,2.89,2.89,0,0,1-1.89-.59,3.48,3.48,0,0,1-1.09-1.56c0-.33-.08-.71-.11-1.12s0-.88,0-1.38,0-1,0-1.62,0-1.21,0-1.89,0-1.39,0-2.14a15.87,15.87,0,0,0-.32-2.53,5.14,5.14,0,0,0-.73-1.85,1.46,1.46,0,0,0-1.27-.69,2.08,2.08,0,0,0-1.49.73,8.54,8.54,0,0,0-1.36,1.9c-.43.78-.87,1.62-1.3,2.52A13.14,13.14,0,0,1,407.93,84a3.94,3.94,0,0,1-3,1.17A3.46,3.46,0,0,1,402.13,84a8,8,0,0,1-1.5-3.11c-.28-1-.56-1.91-.83-2.69a6,6,0,0,0-.92-1.82,1.62,1.62,0,0,0-1.32-.66,1.89,1.89,0,0,0-1.37.68A6.74,6.74,0,0,0,395,78.5a27.7,27.7,0,0,0-.87,3.12c-.22,1.07-.39,2.1-.5,3.09s-.18,1.91-.23,2.76A4.66,4.66,0,0,1,392.33,90,3.28,3.28,0,0,1,390,90.7Z"/><path d="M437.89,92.8a19.56,19.56,0,0,1-4-.39,10.54,10.54,0,0,1-3.37-1.28,6.61,6.61,0,0,1-2.34-2.33,6.84,6.84,0,0,1-.85-3.53,6.07,6.07,0,0,1,1.13-3.76,7.4,7.4,0,0,1,3.06-2.32A16.85,16.85,0,0,1,435.92,78a35.53,35.53,0,0,1,5-.35c.5,0,1,0,1.53,0l1.43.1c.44,0,.82,0,1.11,0a1.24,1.24,0,0,0,.83-.21.94.94,0,0,0,.22-.71,4.49,4.49,0,0,0-.2-1.43,3.49,3.49,0,0,0-.57-1.1,3.93,3.93,0,0,0-.9-.82,5.69,5.69,0,0,0-2.11-.84,13,13,0,0,0-2.71-.26,13.14,13.14,0,0,0-3.19.36c-1,.24-1.84.49-2.65.75a7.56,7.56,0,0,1-2.31.39,4.89,4.89,0,0,1-2.52-.54,1.86,1.86,0,0,1-.91-1.71,2.93,2.93,0,0,1,.91-2.08,7.41,7.41,0,0,1,2.44-1.58,16.67,16.67,0,0,1,3.58-1,25.37,25.37,0,0,1,4.27-.35,23.23,23.23,0,0,1,7.61,1.08,8.69,8.69,0,0,1,4.66,3.54A12.29,12.29,0,0,1,453,78a13.12,13.12,0,0,1-.13,2q-.12.87-.27,1.5c-.1.43-.19.8-.28,1.11a3.63,3.63,0,0,0-.12.88,2,2,0,0,0,.42,1.22,12.82,12.82,0,0,0,1,1.18,7.44,7.44,0,0,1,1,1.27,2.79,2.79,0,0,1,.43,1.5,2,2,0,0,1-.82,1.81,3.06,3.06,0,0,1-1.81.57,1.93,1.93,0,0,1-1.41-.52,13,13,0,0,1-1-1,1.34,1.34,0,0,0-1-.5,1.83,1.83,0,0,0-.78.21,10.27,10.27,0,0,0-1.07.64,20.75,20.75,0,0,1-1.95,1.24,13.38,13.38,0,0,1-3,1.19A16.68,16.68,0,0,1,437.89,92.8Zm.73-4.6a8.87,8.87,0,0,0,2.6-.4,7.86,7.86,0,0,0,2.28-1.14,5.65,5.65,0,0,0,1.61-1.74,4.13,4.13,0,0,0,.6-2.17,1.3,1.3,0,0,0-.51-1.14,3.43,3.43,0,0,0-1.61-.46c-.73-.07-1.69-.1-2.87-.1a15,15,0,0,0-3.35.36,5.74,5.74,0,0,0-2.54,1.21,3,3,0,0,0-1,2.33,2.75,2.75,0,0,0,.59,1.82,3.44,3.44,0,0,0,1.65,1.08A8.09,8.09,0,0,0,438.62,88.2Z"/><path d="M470,91.52a15.9,15.9,0,0,1-6.45-1.21,9.21,9.21,0,0,1-4.25-3.65,11.41,11.41,0,0,1-1.49-6.09,12,12,0,0,1,1.29-5.81,8.46,8.46,0,0,1,3.77-3.57A13.29,13.29,0,0,1,468.78,70a9.63,9.63,0,0,1,3,.4,11.33,11.33,0,0,1,1.95.82l.93.52a1.6,1.6,0,0,0,.61.21c.25,0,.38-.24.38-.7a13.94,13.94,0,0,0-.1-1.49c-.07-.62-.16-1.31-.26-2.06L475,65.42c-.11-.76-.2-1.46-.27-2.11a13.57,13.57,0,0,1-.12-1.58q0-3.61,3.63-3.62a5.34,5.34,0,0,1,2.36.53,4.47,4.47,0,0,1,1.79,1.67,13.87,13.87,0,0,1,.73,2.21c.25.92.47,1.94.67,3s.38,2.24.53,3.4.28,2.25.35,3.3.12,1.93.12,2.68a25.75,25.75,0,0,1-1.45,9.32,10.34,10.34,0,0,1-4.69,5.46A17.83,17.83,0,0,1,470,91.52Zm.25-4.55a7.21,7.21,0,0,0,3.45-.76A5.08,5.08,0,0,0,475.84,84a7.1,7.1,0,0,0,.74-3.32,6.49,6.49,0,0,0-.7-3.17,4.76,4.76,0,0,0-2-1.94,6.43,6.43,0,0,0-3-.66,7.9,7.9,0,0,0-3.45.71,5.3,5.3,0,0,0-2.3,2.09,7.09,7.09,0,0,0-.1,6.46,5,5,0,0,0,2.06,2A6.46,6.46,0,0,0,470.23,87Z"/><path d="M502.27,92a19.49,19.49,0,0,1-7.42-1.3,10.19,10.19,0,0,1-4.86-4,12.58,12.58,0,0,1-1.71-6.85,14.73,14.73,0,0,1,1.15-6,11.92,11.92,0,0,1,3.18-4.32,13.92,13.92,0,0,1,4.71-2.62A18,18,0,0,1,503,66a18.9,18.9,0,0,1,4,.41,11.71,11.71,0,0,1,3.39,1.29,6.65,6.65,0,0,1,2.34,2.25,6.06,6.06,0,0,1,.87,3.32,5.74,5.74,0,0,1-.77,3.1,5.4,5.4,0,0,1-2.07,2,11.18,11.18,0,0,1-3,1.1q-1.68.38-3.51.6c-.68.15-1.51.28-2.49.4s-1.93.21-2.86.28-1.67.09-2.22.09a2.09,2.09,0,0,0-1,.19.79.79,0,0,0-.29.71,3.35,3.35,0,0,0,.3,1.25,5.25,5.25,0,0,0,.85,1.38,5,5,0,0,0,2.38,1.61,11.43,11.43,0,0,0,3.35.41,12.61,12.61,0,0,0,3.51-.48c1.11-.33,2.15-.65,3.12-1a8.87,8.87,0,0,1,2.74-.49,3.49,3.49,0,0,1,1.93.47,2,2,0,0,1,.72,1.78,3.08,3.08,0,0,1-.94,2.16,7.62,7.62,0,0,1-2.57,1.7,17.62,17.62,0,0,1-3.82,1.12A26.14,26.14,0,0,1,502.27,92Zm-1.8-14.47a14,14,0,0,0,3.3-.37,5.81,5.81,0,0,0,2.52-1.2A3.21,3.21,0,0,0,506,71.1a6.35,6.35,0,0,0-3.49-.82,7.3,7.3,0,0,0-2.57.46A7.56,7.56,0,0,0,497.7,72a6.36,6.36,0,0,0-1.59,1.86,4.5,4.5,0,0,0-.59,2.22,1,1,0,0,0,.5,1,3.9,3.9,0,0,0,1.59.39C498.33,77.5,499.29,77.53,500.47,77.53Z"/><path d="M530.71,90.87a17.17,17.17,0,0,1-7.42-1.4,9.22,9.22,0,0,1-4.4-4.25,15.7,15.7,0,0,1-1.45-7.17c0-1.23,0-2.49.14-3.79s.22-2.57.4-3.83.39-2.48.65-3.63.53-2.2.83-3.17a17.26,17.26,0,0,1,1-2.52,6.43,6.43,0,0,1,1.82-2,4.14,4.14,0,0,1,2.35-.71,3.08,3.08,0,0,1,2.33.84,3.12,3.12,0,0,1,.8,2.24c0,.38,0,.8,0,1.27s-.08.95-.13,1.46-.1,1-.16,1.53-.1,1-.14,1.48,0,.94,0,1.35a16.44,16.44,0,0,0,.08,1.85c.05.42.21.63.47.63a2.86,2.86,0,0,0,1.08-.3c.45-.2.95-.43,1.5-.7a8.68,8.68,0,0,1,2-.84,10.33,10.33,0,0,1,2.91-.36,11,11,0,0,1,5.56,1.32,9,9,0,0,1,3.55,3.7,11.89,11.89,0,0,1,1.24,5.53,10.85,10.85,0,0,1-1.15,5.13,10,10,0,0,1-3.18,3.56,14.24,14.24,0,0,1-4.73,2.08A24.18,24.18,0,0,1,530.71,90.87Zm.8-4.67a7.43,7.43,0,0,0,2.18-.34,6.58,6.58,0,0,0,2.08-1A5.34,5.34,0,0,0,537.33,83a5.86,5.86,0,0,0,.6-2.76,7.58,7.58,0,0,0-.72-3.45,5.13,5.13,0,0,0-2.1-2.2,6.8,6.8,0,0,0-3.35-.77,7.08,7.08,0,0,0-3.15.68,5.34,5.34,0,0,0-2.16,1.94,5.52,5.52,0,0,0-.79,3,10.09,10.09,0,0,0,.58,3.57,4.77,4.77,0,0,0,1.86,2.4A6.07,6.07,0,0,0,531.51,86.2Z"/><path d="M553.75,100.14a3.13,3.13,0,0,1-2.17-.73,2.31,2.31,0,0,1-.83-1.77,2.86,2.86,0,0,1,.79-2,6.3,6.3,0,0,1,2.16-1.46c.84-.5,1.68-1,2.54-1.62a27,27,0,0,0,2.37-1.75,13.25,13.25,0,0,0,1.77-1.68,2.34,2.34,0,0,0,.67-1.4,1.76,1.76,0,0,0-.75-1.18A14.78,14.78,0,0,0,557.83,85a17,17,0,0,1-2.75-1.91,23.77,23.77,0,0,1-2.53-2.49,20.74,20.74,0,0,1-2.06-2.8,15.39,15.39,0,0,1-1.4-2.9,8.31,8.31,0,0,1-.51-2.77,3.65,3.65,0,0,1,.49-1.89,3.46,3.46,0,0,1,1.32-1.31,3.74,3.74,0,0,1,1.89-.48,5,5,0,0,1,2.75.73,6.25,6.25,0,0,1,2,2.47,48.25,48.25,0,0,0,2.19,4.83,23.57,23.57,0,0,0,2.34,3.72,8.61,8.61,0,0,0,1.35,1.4,2,2,0,0,0,1.14.57,1.82,1.82,0,0,0,1.33-.65,5.3,5.3,0,0,0,1-1.42,26.34,26.34,0,0,0,2.07-4.26c.6-1.56,1.2-3.1,1.8-4.64A7.91,7.91,0,0,1,571.92,69a3.85,3.85,0,0,1,5,.15,4,4,0,0,1,.79,2.6,12.31,12.31,0,0,1-.51,3.31,27.53,27.53,0,0,1-1.38,3.76c-.57,1.3-1.21,2.58-1.92,3.85s-1.44,2.45-2.2,3.56-1.48,2.07-2.16,2.89c-1.14,1.35-2.36,2.68-3.69,4a42.61,42.61,0,0,1-4.06,3.55,21.93,21.93,0,0,1-4.12,2.53A9.53,9.53,0,0,1,553.75,100.14Z"/><path d="M384,69.72a11,11,0,0,1-1.61,5.44q-3.24,5.45-8.07,5.44a17.94,17.94,0,0,1-5.65-1.2A41,41,0,0,0,352.9,76a12,12,0,0,0-9.07,3.53,12.84,12.84,0,0,0-3.43,9.37v15.32h23.18c4.17,0,7.43,1,9.78,2.82a9.32,9.32,0,0,1,3.53,7.67,9.09,9.09,0,0,1-3.53,7.46q-3.53,2.82-9.78,2.82H340.4V192.9q0,5.65-3.43,8.88T327.29,205q-6,0-9.67-3.22A11.27,11.27,0,0,1,314,192.9V125h-4.44q-6,0-9.68-2.82a9,9,0,0,1-3.63-7.46,9.32,9.32,0,0,1,3.53-7.67c2.35-1.87,5.61-2.82,9.78-2.82H314V89.68q0-15.53,10-25.1T349.88,55a78.28,78.28,0,0,1,16.93,1.51,38.69,38.69,0,0,1,12.1,4.94C382.26,63.6,384,66.36,384,69.72Z"/><path d="M397.56,200.77A35.19,35.19,0,0,1,382.64,189a29.46,29.46,0,0,1-5.34-17.44q0-14.91,12.39-23.79t33.57-8.87q18.35,0,29.44,7.86v-4.84q0-9.46-5.85-14.51t-16.93-5q-16.55,0-28.43,7-5,2.84-8.67,2.83-4.44,0-7.86-4a9.4,9.4,0,0,1-2.22-5.85q0-5,5.24-8.87a56.46,56.46,0,0,1,18.35-8.27,88.75,88.75,0,0,1,23.38-3q23.4,0,36.8,10.58t13.41,29.13v51.82a10.33,10.33,0,0,1-3.53,8.27q-3.52,3-9.58,3-6.26,0-9.68-2.82t-3.42-8.07V191.9Q442.22,205,419.63,205A54.14,54.14,0,0,1,397.56,200.77Zm48.18-18.25q7.15-3.93,7.16-11,0-6.65-7.26-10.68t-19.35-4q-10.89,0-16.84,3.84a12.21,12.21,0,0,0-5.94,10.88,12.5,12.5,0,0,0,5.84,11q5.85,3.93,16.54,3.93Q438.58,186.45,445.74,182.52Z"/><path d="M500.89,201.78q-3.43-3.22-3.43-8.88V114.27q0-5.83,3.33-9t9.37-3.12q6,0,9.48,3.22t3.42,8.87v6.66a44.09,44.09,0,0,1,14.62-12.4,38.69,38.69,0,0,1,18.05-4.34h4.43q6.45,0,10,2.73a10.29,10.29,0,0,1,0,15.52q-3.52,2.72-10,2.72h-6.85q-13.51,0-21.48,8.57t-8,23.49V192.9a11.27,11.27,0,0,1-3.63,8.88q-3.63,3.21-9.67,3.22Q504.31,205,500.89,201.78Z"/><path d="M585.66,85.54a13.91,13.91,0,0,1-4.53-10.78A13.93,13.93,0,0,1,585.66,64q4.55-4.12,12-4.13T609.86,64a13.64,13.64,0,0,1,4.74,10.79,13.62,13.62,0,0,1-4.74,10.78q-4.74,4.14-12.2,4.14T585.66,85.54Zm2.53,116.24q-3.44-3.22-3.43-8.88V114.27q0-5.64,3.43-8.87t9.67-3.22q6,0,9.68,3.22a11.26,11.26,0,0,1,3.63,8.87V192.9a11.27,11.27,0,0,1-3.63,8.88q-3.63,3.21-9.68,3.22Q591.62,205,588.19,201.78Z"/></g></g></svg>