<svg xmlns="http://www.w3.org/2000/svg" viewBox="0 0 249.64 250"><g id="Layer_2" data-name="Layer 2"><g id="Layer_1-2" data-name="Layer 1"><path d="M249.51,137.14a18,18,0,0,0-2.19-6.36,15.93,15.93,0,0,0-5-5.86,11.88,11.88,0,0,0-6.22-1.81,38.76,38.76,0,0,0-4.79.68c-1.73.33-3.56.76-5.46,1.26s-3.8,1-5.69,1.61-3.68,1.15-5.41,1.71a23.64,23.64,0,0,1-4.52,1,2.74,2.74,0,0,1-3-1.21c-.52-.93-.25-2,.79-3.2a38,38,0,0,1,3.87-3.81c1.28-1.15,2.6-2.37,4-3.71s2.76-2.73,4.1-4.14,2.53-2.79,3.63-4.13a30.08,30.08,0,0,0,2.6-3.65A11.71,11.71,0,0,0,227.83,99a15.47,15.47,0,0,0-2.1-6.91,24.16,24.16,0,0,0-4.4-5.72,16.56,16.56,0,0,0-6.19-3.7.61.61,0,0,1-.13,0c.32-1.53.63-3.06.9-4.61.35-2,.68-4,1-5.94q.87-5.59,1.18-10.86a69.06,69.06,0,0,0-.05-9.69,29.31,29.31,0,0,0-1.41-7.41,20.08,20.08,0,0,0-3-6.14,16,16,0,0,0-4.69-4.29,17.66,17.66,0,0,0-6.34-2.27,16,16,0,0,0-7.72.3,11.88,11.88,0,0,0-5.3,3.74,41.5,41.5,0,0,0-2.46,4.17c-.8,1.56-1.62,3.24-2.41,5s-1.57,3.62-2.3,5.45-1.4,3.59-2,5.29a23.85,23.85,0,0,1-2.06,4.14,2.76,2.76,0,0,1-2.79,1.55c-1.05-.18-1.72-1-2-2.6a40,40,0,0,1-.55-5.42c-.11-1.7-.25-3.51-.42-5.45s-.39-3.84-.68-5.76-.58-3.73-1-5.42a30.34,30.34,0,0,0-1.23-4.31,11.76,11.76,0,0,0-4-5.28,15.62,15.62,0,0,0-6.71-2.67,23.91,23.91,0,0,0-7.21-.11,16.56,16.56,0,0,0-6.74,2.52l-.13.09c-1-1.2-2-2.39-3-3.59q-2-2.23-4-4.44c-2.55-2.79-5.15-5.35-7.76-7.7a70.92,70.92,0,0,0-7.61-6,29.58,29.58,0,0,0-6.67-3.52A20.41,20.41,0,0,0,109,0a15.92,15.92,0,0,0-6.28,1A18.25,18.25,0,0,0,97,4.55a16,16,0,0,0-4.58,6.22,12,12,0,0,0-.38,6.49,43,43,0,0,0,1.72,4.5c.73,1.62,1.54,3.31,2.44,5s1.86,3.48,2.85,5.18,1.94,3.34,2.87,4.9a24.35,24.35,0,0,1,1.95,4.19,2.73,2.73,0,0,1-.54,3.15c-.78.71-1.89.69-3.29,0a39.06,39.06,0,0,1-4.58-2.94c-1.38-1-2.9-2-4.5-3.07s-3.28-2.08-5-3.07-3.29-1.86-4.83-2.62a31,31,0,0,0-4.14-1.73,11.86,11.86,0,0,0-6.65-.13,15.46,15.46,0,0,0-6.26,3.58,23.63,23.63,0,0,0-4.58,5.57,16.26,16.26,0,0,0-2.24,6.85v.14c-1.56,0-3.12.07-4.71.15-2,.09-4,.23-6,.37q-5.67.4-10.87,1.28a71.38,71.38,0,0,0-9.43,2.2,29.22,29.22,0,0,0-6.93,3,20.89,20.89,0,0,0-5.3,4.28A15.91,15.91,0,0,0,11,63.6a17.78,17.78,0,0,0-.81,6.69,15.85,15.85,0,0,0,2,7.46A12,12,0,0,0,17,82.1a44.78,44.78,0,0,0,4.59,1.45q2.58.67,5.48,1.24t5.83,1q2.91.45,5.6.81A22.2,22.2,0,0,1,43,87.7a2.76,2.76,0,0,1,2.14,2.38c.07,1-.64,1.91-2.09,2.53a37,37,0,0,1-5.15,1.77c-1.64.47-3.39,1-5.21,1.6s-3.67,1.25-5.48,2-3.51,1.4-5.07,2.14a29.94,29.94,0,0,0-3.94,2.16,11.69,11.69,0,0,0-4.23,5.1,15.5,15.5,0,0,0-1.12,7.15,23.72,23.72,0,0,0,1.49,7.05,16.52,16.52,0,0,0,4,6,1,1,0,0,0,.11.1c-.94,1.23-1.89,2.47-2.82,3.76-1.16,1.62-2.31,3.26-3.43,4.93a106.27,106.27,0,0,0-5.78,9.27,69.85,69.85,0,0,0-4.17,8.76,29.79,29.79,0,0,0-1.94,7.29,20.28,20.28,0,0,0,0,6.83,15.77,15.77,0,0,0,2.36,5.89,17.69,17.69,0,0,0,4.74,4.8,15.64,15.64,0,0,0,7.08,3.07,11.83,11.83,0,0,0,6.41-1.05c1.24-.74,2.58-1.64,4-2.69s2.88-2.22,4.38-3.5,3-2.6,4.42-3.92,2.84-2.64,4.14-3.89a23.29,23.29,0,0,1,3.66-2.83,2.71,2.71,0,0,1,3.18-.19c.86.61,1.08,1.68.67,3.23a36.7,36.7,0,0,1-1.84,5.11c-.64,1.58-1.31,3.28-2,5.09s-1.31,3.64-1.89,5.49-1.09,3.61-1.5,5.3a32.4,32.4,0,0,0-.75,4.42,11.79,11.79,0,0,0,1.35,6.5,15.35,15.35,0,0,0,4.88,5.31,23.88,23.88,0,0,0,6.46,3.24,16.5,16.5,0,0,0,7.18.65l.12,0c.38,1.51.77,3,1.2,4.54.54,1.93,1.1,3.84,1.7,5.76q1.65,5.43,3.65,10.3a70,70,0,0,0,4.25,8.7,30,30,0,0,0,4.49,6.08A20.17,20.17,0,0,0,78,248.1a15.6,15.6,0,0,0,6.08,1.83,17.75,17.75,0,0,0,6.69-.71,15.8,15.8,0,0,0,6.83-3.61,12,12,0,0,0,3.17-5.68,41.45,41.45,0,0,0,.39-4.8c.07-1.77,0-3.64,0-5.61s-.16-3.93-.3-5.9-.3-3.86-.46-5.65a22.86,22.86,0,0,1,.06-4.63,2.7,2.7,0,0,1,1.85-2.6c1-.3,2,.19,2.93,1.48a36.9,36.9,0,0,1,2.86,4.63q1.23,2.22,2.73,4.72c1,1.65,2,3.29,3.11,4.9s2.16,3.1,3.23,4.47a31,31,0,0,0,3,3.35,11.74,11.74,0,0,0,5.92,3,15.42,15.42,0,0,0,7.21-.5,23.86,23.86,0,0,0,6.55-3,16.14,16.14,0,0,0,5-5.19.33.33,0,0,0,.07-.13c1.41.65,2.85,1.29,4.3,1.91,1.84.78,3.7,1.54,5.57,2.26a106.46,106.46,0,0,0,10.33,3.56,69.1,69.1,0,0,0,9.46,2.11,29.6,29.6,0,0,0,7.54.28,20.72,20.72,0,0,0,6.65-1.55,16.45,16.45,0,0,0,5.23-3.63,17.75,17.75,0,0,0,3.6-5.68,15.66,15.66,0,0,0,1.43-7.59,11.85,11.85,0,0,0-2.45-6,42.6,42.6,0,0,0-3.51-3.32c-1.36-1.15-2.82-2.3-4.4-3.48s-3.18-2.33-4.8-3.45-3.2-2.17-4.71-3.16a23.39,23.39,0,0,1-3.57-2.93,2.75,2.75,0,0,1-.9-3.07c.41-1,1.4-1.44,3-1.37a36.9,36.9,0,0,1,5.4.66c1.69.27,3.48.53,5.4.8s3.85.46,5.78.63,3.77.24,5.5.25a30.91,30.91,0,0,0,4.47-.23,11.9,11.9,0,0,0,6-2.76,15.49,15.49,0,0,0,4.09-5.95,23.9,23.9,0,0,0,1.72-7,16.69,16.69,0,0,0-1-7.13c0-.05-.05-.08-.07-.13,1.4-.71,2.79-1.42,4.18-2.16,1.76-1,3.49-2,5.22-3,3.29-1.86,6.36-3.81,9.25-5.84a71.15,71.15,0,0,0,7.54-6.09,30.13,30.13,0,0,0,4.93-5.72,20.83,20.83,0,0,0,2.91-6.17A16.22,16.22,0,0,0,249.51,137.14Zm-24.94,5.5a14.6,14.6,0,0,1-2.91,3.92,26.37,26.37,0,0,1-3.5,2.94q-2.34,1.73-5.35,3.74c-2,1.32-4.08,2.66-6.24,4-1.12.71-2.25,1.45-3.4,2.22l-.86.58-1.56-.93c-2.14-1.23-4.41-2.42-6.77-3.57s-4.71-2.24-7-3.23c-2-.82-4-1.61-6-2.33s-4-1.42-5.92-2-3.81-1.1-5.61-1.52-3.49-.77-5.07-1a17.1,17.1,0,0,0-6.59.49c-1.69.54-3,2-3.94,4.27a7,7,0,0,0-.49,4.49,7.61,7.61,0,0,0,2.24,3.63,16.24,16.24,0,0,0,2.5,1.61c1,.57,2.19,1.17,3.54,1.79s2.82,1.31,4.4,2,3.27,1.41,5.08,2.15,3.45,1.43,5.07,2.14,3.15,1.4,4.58,2.06,2.68,1.29,3.8,1.87,2,1.07,2.75,1.5a17.58,17.58,0,0,1,4.62,3.67,3.5,3.5,0,0,1,.44,3.73,3.6,3.6,0,0,1-2.24,2.09,10.13,10.13,0,0,1-4.47.19c-.93-.11-2.09-.26-3.48-.49s-2.86-.45-4.47-.72l-4.83-.83c-1.63-.27-3.15-.54-4.57-.76s-2.61-.41-3.58-.53a28.57,28.57,0,0,0-8.1.47c-2.13.52-3.74,2.11-4.84,4.75a7.77,7.77,0,0,0-.25,6.22,13.22,13.22,0,0,0,4.66,5.15l3.46,2.22,3.83,2.47,3.8,2.41c1.21.77,2.33,1.48,3.33,2.17s1.85,1.26,2.51,1.74a11.13,11.13,0,0,1,3.49,3.73,4.29,4.29,0,0,1,.24,3.75,3.92,3.92,0,0,1-2.69,2.47,14.52,14.52,0,0,1-4.88.17,26.38,26.38,0,0,1-4.49-.9c-1.88-.5-4-1.11-6.25-1.85s-4.63-1.53-7-2.4c-1.26-.42-2.53-.85-3.86-1.27l-1-.32c-.08-.6-.16-1.16-.25-1.79-.38-2.44-.85-5-1.42-7.53s-1.2-5.07-1.87-7.51c-.6-2.06-1.23-4.13-1.91-6.14s-1.37-4-2.12-5.87-1.52-3.69-2.3-5.36-1.58-3.21-2.38-4.59a17.55,17.55,0,0,0-4.49-4.87c-1.46-1-3.38-1.1-5.78-.41a7.16,7.16,0,0,0-3.81,2.41,7.78,7.78,0,0,0-1.46,4,21,21,0,0,0,.3,2.94c.2,1.15.47,2.46.82,3.91s.74,3,1.18,4.68.94,3.43,1.49,5.32,1,3.57,1.48,5.29.89,3.34,1.25,4.86.66,2.9.91,4.13.41,2.27.54,3.09a17.58,17.58,0,0,1,0,5.9,3.47,3.47,0,0,1-2.64,2.66,3.55,3.55,0,0,1-3-.44,9.92,9.92,0,0,1-2.94-3.37c-.5-.8-1.1-1.79-1.8-3l-2.2-3.95c-.79-1.44-1.59-2.87-2.38-4.3l-2.23-4c-.71-1.24-1.33-2.3-1.83-3.12a28.16,28.16,0,0,0-5.43-6q-2.59-2-6.73-.81a7.62,7.62,0,0,0-5,3.67,13.13,13.13,0,0,0-1.14,6.85c.13,1.26.27,2.63.43,4.1s.3,3,.46,4.53.31,3,.47,4.47.3,2.74.39,4,.18,2.24.21,3a11.39,11.39,0,0,1-.74,5.07A4.32,4.32,0,0,1,88,225a3.94,3.94,0,0,1-3.63-.56,14.71,14.71,0,0,1-3.18-3.72,26.49,26.49,0,0,1-2.09-4.05c-.77-1.79-1.59-3.81-2.44-6s-1.69-4.59-2.51-7c-.44-1.25-.91-2.52-1.41-3.82-.13-.31-.24-.62-.36-1,.4-.44.81-.85,1.24-1.3q2.52-2.75,5-5.81c1.65-2.05,3.23-4.1,4.72-6.14,1.23-1.77,2.44-3.55,3.61-5.34s2.27-3.56,3.28-5.32,1.92-3.47,2.74-5.14,1.54-3.22,2.12-4.7a17.4,17.4,0,0,0,1-6.55c-.14-1.75-1.24-3.34-3.27-4.78a7.13,7.13,0,0,0-4.27-1.48,7.65,7.65,0,0,0-4.06,1.37,20.22,20.22,0,0,0-2.11,2.08q-1.16,1.31-2.55,3.06c-.92,1.18-1.89,2.45-2.92,3.84s-2.09,2.88-3.22,4.49-2.16,3-3.22,4.45-2.06,2.77-3,4-1.85,2.35-2.67,3.29-1.49,1.75-2.07,2.37A18.32,18.32,0,0,1,58,184.9a3.48,3.48,0,0,1-3.73-.41,3.58,3.58,0,0,1-1.55-2.65,10.23,10.23,0,0,1,.81-4.39c.31-.9.72-2,1.24-3.29s1.1-2.69,1.72-4.19,1.24-3,1.87-4.55,1.23-2.93,1.76-4.26,1-2.46,1.31-3.37a27.7,27.7,0,0,0,1.34-8q0-3.28-3.56-5.76a7.63,7.63,0,0,0-6-1.62,13.11,13.11,0,0,0-6.06,3.38l-2.93,2.88L41,151.85c-1.12,1.09-2.17,2.14-3.19,3.15s-2,1.94-2.85,2.77-1.64,1.53-2.26,2.06a11.17,11.17,0,0,1-4.4,2.57,4.28,4.28,0,0,1-3.72-.6,3.92,3.92,0,0,1-1.81-3.18,14.37,14.37,0,0,1,.93-4.8,25.27,25.27,0,0,1,1.86-4.16c.91-1.72,2-3.6,3.21-5.68s2.52-4.18,3.89-6.32c.69-1.12,1.4-2.28,2.09-3.46l.54-.9,1.79.16c2.47.17,5,.27,7.67.28s5.21,0,7.73-.14q3.24-.19,6.42-.5c2.13-.21,4.19-.46,6.21-.76s3.9-.66,5.71-1.05,3.5-.82,5-1.3a17.21,17.21,0,0,0,5.75-3.29c1.27-1.21,1.82-3,1.68-5.55a7.26,7.26,0,0,0-1.49-4.26,7.84,7.84,0,0,0-3.61-2.31,19.17,19.17,0,0,0-2.94-.36c-1.17-.07-2.49-.1-4-.08s-3.1.06-4.81.12-3.56.15-5.53.27-3.72.21-5.48.27-3.45.11-5,.13-3,0-4.24,0-2.3-.09-3.13-.15a18,18,0,0,1-5.75-1.31,3.48,3.48,0,0,1-2-3.18,3.6,3.6,0,0,1,1.11-2.85,9.94,9.94,0,0,1,3.94-2.09c.88-.32,2-.68,3.34-1.09L48,102.94c1.58-.45,3.15-.91,4.73-1.35l4.44-1.29c1.37-.41,2.53-.77,3.45-1.09a28.49,28.49,0,0,0,7.1-3.93c1.7-1.39,2.45-3.52,2.28-6.38a7.69,7.69,0,0,0-2.46-5.72,13.31,13.31,0,0,0-6.44-2.63L57,80.07l-4.52-.56c-1.54-.2-3-.37-4.46-.53s-2.74-.33-3.95-.5-2.2-.34-3-.48a11.31,11.31,0,0,1-4.76-1.85,4.25,4.25,0,0,1-1.84-3.26,3.86,3.86,0,0,1,1.35-3.41,14.62,14.62,0,0,1,4.33-2.28,28,28,0,0,1,4.41-1.13c1.92-.36,4.06-.71,6.44-1s4.85-.63,7.37-.88c1.31-.16,2.66-.33,4-.54l1-.14,1,1.51c1.41,2,2.92,4.1,4.55,6.16s3.27,4.06,4.94,6c1.45,1.6,2.91,3.16,4.39,4.7s3,3,4.46,4.38,3,2.65,4.39,3.81,2.82,2.22,4.14,3.12a17.8,17.8,0,0,0,6.14,2.44c1.75.24,3.55-.49,5.4-2.16a7.07,7.07,0,0,0,2.4-3.82,7.66,7.66,0,0,0-.44-4.26,17.49,17.49,0,0,0-1.56-2.53c-.66-1-1.48-2-2.41-3.15s-2-2.39-3.1-3.7-2.35-2.69-3.66-4.16S91.58,69,90.42,67.66,88.18,65,87.19,63.82s-1.86-2.32-2.61-3.33-1.36-1.85-1.83-2.55a17.71,17.71,0,0,1-2.57-5.3,3.77,3.77,0,0,1,4.14-4.46,10,10,0,0,1,4.11,1.76c.81.49,1.78,1.14,2.93,1.94l3.72,2.6,4,2.85c1.34,1,2.6,1.84,3.76,2.66s2.19,1.51,3,2a28.37,28.37,0,0,0,7.51,3.09c2.14.47,4.28-.27,6.41-2.19a7.7,7.7,0,0,0,2.93-5.48,13.27,13.27,0,0,0-2-6.66c-.67-1.09-1.38-2.25-2.17-3.51l-2.38-3.89c-.82-1.32-1.6-2.6-2.36-3.81s-1.46-2.35-2.08-3.4-1.1-1.94-1.49-2.65a11.36,11.36,0,0,1-1.53-4.88,4.26,4.26,0,0,1,1.4-3.48,3.88,3.88,0,0,1,3.51-1.05,14,14,0,0,1,4.47,2,26.67,26.67,0,0,1,3.66,2.74c1.46,1.26,3.07,2.73,4.81,4.38s3.52,3.4,5.3,5.21c.92.93,1.9,1.88,2.91,2.82l.74.69c-.18.57-.36,1.15-.54,1.75-.72,2.36-1.38,4.84-2,7.4s-1.13,5.09-1.58,7.58c-.36,2.12-.67,4.25-.94,6.36s-.5,4.19-.65,6.22-.22,4-.25,5.82,0,3.58.14,5.17a17.54,17.54,0,0,0,1.94,6.33q1.35,2.23,5,2.88a7.23,7.23,0,0,0,4.49-.52,7.72,7.72,0,0,0,3.05-3,18.51,18.51,0,0,0,1-2.79c.31-1.11.64-2.39,1-3.85s.65-3,1-4.73.65-3.51,1-5.45.63-3.66,1-5.41.66-3.39,1-4.91.66-2.92,1-4.13.6-2.22.85-3a17.77,17.77,0,0,1,2.55-5.32A3.52,3.52,0,0,1,158,47a3.65,3.65,0,0,1,2.54,1.72,10.28,10.28,0,0,1,1.18,4.31c.11.93.2,2.1.3,3.5s.19,2.89.28,4.52.19,3.26.27,4.91.19,3.18.27,4.61.19,2.63.3,3.61A27.89,27.89,0,0,0,165.4,82c1,2,2.88,3.18,5.71,3.66a7.79,7.79,0,0,0,6.11-1.14,13.17,13.17,0,0,0,4-5.68c.43-1.2.88-2.49,1.39-3.88s1-2.81,1.54-4.28,1-2.88,1.51-4.23,1-2.6,1.37-3.74.82-2.07,1.14-2.83A11.5,11.5,0,0,1,191,55.64a4.29,4.29,0,0,1,3.59-1.07,3.87,3.87,0,0,1,3,2.1,14,14,0,0,1,1.25,4.71,26.72,26.72,0,0,1,.14,4.56q-.12,2.91-.42,6.5c-.21,2.41-.48,4.87-.78,7.39-.14,1.31-.26,2.66-.39,4,0,.36-.05.69-.08,1-.57.22-1.1.41-1.7.65q-3.45,1.36-7,3t-6.91,3.5c-1.88,1.05-3.74,2.12-5.56,3.22s-3.59,2.24-5.26,3.39-3.25,2.28-4.71,3.43-2.77,2.25-3.95,3.34a16.93,16.93,0,0,0-3.73,5.45c-.63,1.63-.33,3.56.88,5.73a7.08,7.08,0,0,0,3.19,3.18,7.65,7.65,0,0,0,4.26.52,17.23,17.23,0,0,0,2.81-1c1.08-.44,2.27-1,3.63-1.65s2.77-1.39,4.28-2.19,3.15-1.68,4.86-2.64,3.26-1.8,4.84-2.63,3-1.59,4.45-2.29,2.7-1.3,3.83-1.81,2.11-.91,2.9-1.22a17.43,17.43,0,0,1,5.74-1.31,3.47,3.47,0,0,1,3.19,2,3.59,3.59,0,0,1,.23,3.06A9.93,9.93,0,0,1,205,112.3c-.66.67-1.51,1.48-2.53,2.42l-3.37,3.06L195.41,121c-1.23,1.1-2.38,2.12-3.43,3.08s-2,1.8-2.65,2.47a28.58,28.58,0,0,0-4.68,6.63c-.92,2-.69,4.24.7,6.76a7.76,7.76,0,0,0,4.71,4.06,13.08,13.08,0,0,0,6.92-.43l3.91-1.32,4.31-1.46c1.47-.49,2.88-1,4.25-1.45s2.62-.9,3.77-1.26,2.14-.66,2.93-.88a11.28,11.28,0,0,1,5.08-.41,4.26,4.26,0,0,1,3.09,2.16A3.93,3.93,0,0,1,224.57,142.64Z"/></g></g></svg>