<svg xmlns="http://www.w3.org/2000/svg" viewBox="0 0 255.64 256"><g id="Layer_2" data-name="Layer 2"><g id="Layer_1-2" data-name="Layer 1"><path d="M111.33,3l.7,0a20.52,20.52,0,0,1,6.66,1.48A29.58,29.58,0,0,1,125.36,8,71.93,71.93,0,0,1,133,14c2.61,2.35,5.21,4.91,7.76,7.7q2.06,2.21,4,4.44c1.06,1.2,2.05,2.39,3,3.59l.13-.09a16.56,16.56,0,0,1,6.74-2.52,22.7,22.7,0,0,1,3.19-.22,25,25,0,0,1,4,.33,15.52,15.52,0,0,1,6.7,2.67,11.71,11.71,0,0,1,4,5.28,30.34,30.34,0,0,1,1.23,4.31c.38,1.69.69,3.5,1,5.42s.5,3.84.68,5.76.31,3.75.42,5.45a40,40,0,0,0,.55,5.42c.3,1.56,1,2.42,2,2.6l.4,0a2.9,2.9,0,0,0,2.39-1.58,23.85,23.85,0,0,0,2.06-4.14q.94-2.55,2-5.29c.72-1.83,1.5-3.65,2.3-5.45s1.6-3.49,2.41-5a43.53,43.53,0,0,1,2.45-4.17,11.91,11.91,0,0,1,5.31-3.74,12.66,12.66,0,0,1,4.12-.62,22.53,22.53,0,0,1,3.6.32,17.66,17.66,0,0,1,6.34,2.27A16,16,0,0,1,216.59,41a19.84,19.84,0,0,1,3,6.14A28.84,28.84,0,0,1,221,54.58a70.61,70.61,0,0,1,.05,9.69q-.31,5.27-1.18,10.86c-.29,2-.62,4-1,5.94-.27,1.55-.59,3.08-.9,4.61a.5.5,0,0,0,.13,0,16.52,16.52,0,0,1,6.18,3.7,23.94,23.94,0,0,1,4.41,5.72,15.47,15.47,0,0,1,2.1,6.91,11.71,11.71,0,0,1-1.61,6.44,30.08,30.08,0,0,1-2.6,3.65c-1.1,1.34-2.31,2.73-3.63,4.13s-2.7,2.78-4.1,4.14-2.72,2.56-4,3.71a38,38,0,0,0-3.87,3.81c-1,1.2-1.31,2.27-.79,3.2a2.55,2.55,0,0,0,2.41,1.24l.54,0a23.64,23.64,0,0,0,4.52-1c1.73-.56,3.52-1.15,5.41-1.71s3.78-1.12,5.69-1.61,3.73-.93,5.46-1.26a38.76,38.76,0,0,1,4.79-.68,11.88,11.88,0,0,1,6.22,1.81,15.93,15.93,0,0,1,5,5.86,18,18,0,0,1,2.19,6.36,16.41,16.41,0,0,1-.44,6.35,20.86,20.86,0,0,1-2.92,6.17,30,30,0,0,1-4.92,5.72,70.31,70.31,0,0,1-7.55,6.09c-2.88,2-6,4-9.24,5.84-1.73,1-3.46,2-5.23,3-1.38.74-2.77,1.45-4.17,2.16a.75.75,0,0,1,.06.13,16.54,16.54,0,0,1,1,7.13,23.58,23.58,0,0,1-1.71,7,15.4,15.4,0,0,1-4.1,5.95,11.83,11.83,0,0,1-6,2.76,29.54,29.54,0,0,1-4,.24h-.43c-1.74,0-3.56-.09-5.5-.25s-3.86-.38-5.78-.63-3.71-.53-5.4-.8a36.9,36.9,0,0,0-5.4-.66h-.28c-1.43,0-2.33.46-2.71,1.38a2.75,2.75,0,0,0,.9,3.07,22.91,22.91,0,0,0,3.57,2.93c1.51,1,3.09,2,4.71,3.16s3.23,2.27,4.8,3.45,3,2.33,4.4,3.48a46.07,46.07,0,0,1,3.51,3.32,11.85,11.85,0,0,1,2.45,6,15.66,15.66,0,0,1-1.43,7.59,17.77,17.77,0,0,1-3.61,5.68,16.3,16.3,0,0,1-5.22,3.63,20.72,20.72,0,0,1-6.65,1.55,20.38,20.38,0,0,1-2.41.13,36.42,36.42,0,0,1-5.13-.41,69.1,69.1,0,0,1-9.46-2.11,106.46,106.46,0,0,1-10.33-3.56c-1.88-.72-3.73-1.48-5.58-2.26-1.44-.62-2.88-1.26-4.3-1.91a.31.31,0,0,1-.06.13,16.14,16.14,0,0,1-5,5.19,23.86,23.86,0,0,1-6.55,3,16.75,16.75,0,0,1-4.75.73,13.35,13.35,0,0,1-2.47-.23,11.78,11.78,0,0,1-5.92-3,31,31,0,0,1-3-3.35c-1.07-1.37-2.14-2.85-3.23-4.47s-2.11-3.25-3.12-4.9-1.9-3.24-2.72-4.72a35.74,35.74,0,0,0-2.87-4.63,3.06,3.06,0,0,0-2.35-1.57,2,2,0,0,0-.58.09,2.71,2.71,0,0,0-1.84,2.6,22.86,22.86,0,0,0-.06,4.63c.16,1.79.31,3.68.46,5.65s.23,3.93.3,5.9.07,3.84,0,5.61a43.79,43.79,0,0,1-.39,4.8,12,12,0,0,1-3.17,5.68,15.8,15.8,0,0,1-6.83,3.61,18.47,18.47,0,0,1-5.19.78,14.92,14.92,0,0,1-1.5-.07A15.55,15.55,0,0,1,81,251.1a20.17,20.17,0,0,1-5.37-4.22,29.58,29.58,0,0,1-4.49-6.08,70,70,0,0,1-4.25-8.7q-2-4.87-3.65-10.3c-.6-1.92-1.17-3.83-1.7-5.76-.43-1.51-.82-3-1.2-4.54l-.12,0a18.11,18.11,0,0,1-2.18.14,16.19,16.19,0,0,1-5-.79,23.73,23.73,0,0,1-6.46-3.24,15.25,15.25,0,0,1-4.88-5.31,11.89,11.89,0,0,1-1.36-6.5,32.59,32.59,0,0,1,.76-4.42c.41-1.69.9-3.45,1.5-5.3s1.21-3.68,1.89-5.49,1.33-3.51,2-5.09a36.7,36.7,0,0,0,1.84-5.11c.41-1.55.19-2.62-.68-3.23a2.19,2.19,0,0,0-1.32-.43,3.63,3.63,0,0,0-1.86.62,23.23,23.23,0,0,0-3.65,2.83c-1.31,1.25-2.68,2.55-4.14,3.89s-2.91,2.63-4.42,3.92-3,2.44-4.38,3.5-2.76,2-4,2.69a12.07,12.07,0,0,1-5,1.13,10.34,10.34,0,0,1-1.36-.08,15.67,15.67,0,0,1-7.09-3.07,17.8,17.8,0,0,1-4.73-4.8,15.79,15.79,0,0,1-2.37-5.89,20.29,20.29,0,0,1,0-6.83,29.34,29.34,0,0,1,1.94-7.29,68.47,68.47,0,0,1,4.17-8.76,106.27,106.27,0,0,1,5.78-9.27c1.12-1.67,2.27-3.31,3.43-4.93.93-1.29,1.88-2.53,2.82-3.76a1,1,0,0,1-.11-.1,16.52,16.52,0,0,1-4-6,23.72,23.72,0,0,1-1.49-7.05A15.5,15.5,0,0,1,17,110.34a11.69,11.69,0,0,1,4.23-5.1,29.94,29.94,0,0,1,3.94-2.16c1.56-.74,3.26-1.45,5.07-2.14s3.63-1.36,5.48-2,3.57-1.13,5.21-1.6A37,37,0,0,0,46,95.61c1.45-.62,2.15-1.48,2.09-2.53A2.77,2.77,0,0,0,46,90.7a22.2,22.2,0,0,0-4.49-1.08c-1.79-.24-3.67-.51-5.6-.81s-3.89-.64-5.83-1-3.76-.79-5.48-1.24A45.82,45.82,0,0,1,20,85.1a12,12,0,0,1-4.81-4.35,15.85,15.85,0,0,1-2-7.46A18,18,0,0,1,14,66.6a16.09,16.09,0,0,1,3.14-5.53,20.72,20.72,0,0,1,5.3-4.28,29.22,29.22,0,0,1,6.93-3,71.38,71.38,0,0,1,9.43-2.2q5.2-.87,10.87-1.28c2-.14,4-.28,6-.37,1.59-.08,3.15-.11,4.71-.15v-.14a16.39,16.39,0,0,1,2.23-6.85,23.92,23.92,0,0,1,4.59-5.57,15.46,15.46,0,0,1,6.26-3.58,12,12,0,0,1,3.08-.41,12.37,12.37,0,0,1,3.57.54,31,31,0,0,1,4.14,1.73c1.54.76,3.16,1.64,4.83,2.62s3.32,2,5,3.07,3.11,2.09,4.5,3.07a39.06,39.06,0,0,0,4.58,2.94,4.21,4.21,0,0,0,1.91.57,2,2,0,0,0,1.38-.52,2.74,2.74,0,0,0,.54-3.15,24.35,24.35,0,0,0-1.95-4.19c-.93-1.56-1.89-3.18-2.87-4.9s-1.94-3.43-2.85-5.18-1.72-3.43-2.44-5a43,43,0,0,1-1.72-4.5,12,12,0,0,1,.38-6.49A15.86,15.86,0,0,1,100,7.55,18.21,18.21,0,0,1,105.74,4a16.12,16.12,0,0,1,5.59-1m6.28,65.25a5.84,5.84,0,0,1-1.25-.14A28.37,28.37,0,0,1,108.85,65c-.82-.52-1.83-1.2-3-2s-2.43-1.7-3.76-2.66l-4-2.85-3.72-2.6c-1.15-.8-2.13-1.45-2.93-1.94a10,10,0,0,0-4.11-1.76l-.49,0a3.78,3.78,0,0,0-3.65,4.49,17.71,17.71,0,0,0,2.57,5.3c.47.7,1.08,1.55,1.82,2.55s1.63,2.11,2.62,3.33,2.08,2.5,3.23,3.84,2.37,2.72,3.63,4.12,2.54,2.85,3.66,4.16,2.15,2.54,3.1,3.7,1.75,2.2,2.41,3.15a19.48,19.48,0,0,1,1.56,2.53,7.75,7.75,0,0,1,.44,4.26,7.07,7.07,0,0,1-2.4,3.82,7.22,7.22,0,0,1-4.75,2.2,4.73,4.73,0,0,1-.65,0,17.73,17.73,0,0,1-6.14-2.44c-1.32-.9-2.69-1.94-4.14-3.12s-2.9-2.44-4.39-3.81-3-2.83-4.46-4.38-2.94-3.1-4.39-4.7c-1.67-1.91-3.31-3.89-5-6S68.82,70,67.4,68l-1-1.51-1,.14c-1.37.21-2.73.38-4,.54-2.52.25-5,.55-7.37.88s-4.52.68-6.44,1a27.71,27.71,0,0,0-4.41,1.13,14.62,14.62,0,0,0-4.33,2.28,3.86,3.86,0,0,0-1.35,3.41,4.22,4.22,0,0,0,1.84,3.26A11.32,11.32,0,0,0,44.05,81c.81.14,1.81.3,3,.48s2.52.34,3.95.5,2.92.33,4.46.53l4.52.56,4.09.48a13.35,13.35,0,0,1,6.44,2.63A7.69,7.69,0,0,1,73,91.9c.17,2.86-.58,5-2.29,6.38a28.31,28.31,0,0,1-7.1,3.93c-.91.32-2.08.68-3.44,1.09l-4.45,1.29L51,105.94l-4.34,1.28c-1.34.41-2.46.77-3.34,1.09a9.87,9.87,0,0,0-3.94,2.09,3.64,3.64,0,0,0-1.12,2.85,3.51,3.51,0,0,0,2,3.18A18,18,0,0,0,46,117.74c.83.06,1.88.11,3.13.15.92,0,1.92,0,3,0h1.22c1.58,0,3.25-.07,5-.13s3.6-.16,5.48-.27,3.81-.2,5.52-.27,3.33-.11,4.82-.12H75c1.19,0,2.26,0,3.23.08a19.33,19.33,0,0,1,2.94.36,7.84,7.84,0,0,1,3.61,2.31,7.26,7.26,0,0,1,1.49,4.26c.14,2.5-.41,4.34-1.68,5.55A17.21,17.21,0,0,1,78.82,133c-1.51.48-3.18.9-5,1.3s-3.71.74-5.71,1.05-4.08.55-6.21.76-4.26.37-6.42.5-4.46.15-6.75.15h-1c-2.65,0-5.2-.11-7.67-.28l-1.8-.16c-.17.3-.34.58-.53.9-.69,1.18-1.4,2.34-2.1,3.46-1.36,2.14-2.66,4.25-3.88,6.32s-2.3,4-3.22,5.68a25.94,25.94,0,0,0-1.85,4.16,14.37,14.37,0,0,0-.93,4.8,3.9,3.9,0,0,0,1.81,3.18,4.06,4.06,0,0,0,2.41.78,5,5,0,0,0,1.3-.18,11.2,11.2,0,0,0,4.41-2.57c.62-.53,1.37-1.23,2.25-2.06S39.79,159,40.79,158s2.08-2.06,3.2-3.15l3.26-3.2,2.93-2.88a13.06,13.06,0,0,1,6.06-3.38,6.13,6.13,0,0,1,1.21-.12A8.31,8.31,0,0,1,62.24,147q3.52,2.48,3.56,5.76a27.7,27.7,0,0,1-1.34,8c-.33.91-.76,2-1.31,3.37s-1.12,2.75-1.76,4.26-1.26,3-1.87,4.55-1.2,2.9-1.72,4.19-.93,2.39-1.24,3.29a10.08,10.08,0,0,0-.81,4.39,3.58,3.58,0,0,0,1.55,2.65,3.79,3.79,0,0,0,2.2.77A3.57,3.57,0,0,0,61,187.9a18.31,18.31,0,0,0,4.59-3.68c.59-.62,1.28-1.41,2.08-2.37s1.7-2,2.66-3.29,2-2.56,3-4,2.13-2.91,3.21-4.45,2.21-3.1,3.23-4.49,2-2.66,2.92-3.84,1.77-2.19,2.55-3.06a20.22,20.22,0,0,1,2.11-2.08,7.62,7.62,0,0,1,4.06-1.37h.18a7.26,7.26,0,0,1,4.09,1.48c2,1.44,3.13,3,3.27,4.78a17.4,17.4,0,0,1-1,6.55q-.87,2.22-2.13,4.7c-.82,1.67-1.73,3.37-2.74,5.14s-2.11,3.54-3.27,5.32-2.38,3.57-3.61,5.34c-1.49,2-3.07,4.09-4.72,6.14s-3.31,4-5,5.81c-.43.45-.84.86-1.25,1.3.13.34.24.65.37,1,.5,1.3,1,2.57,1.41,3.82.82,2.4,1.66,4.72,2.51,7s1.67,4.25,2.44,6a26.49,26.49,0,0,0,2.09,4.05,14.71,14.71,0,0,0,3.18,3.72,3.7,3.7,0,0,0,2.28.76,5,5,0,0,0,1.34-.2,4.29,4.29,0,0,0,2.77-2.52,11.11,11.11,0,0,0,.74-5.07c0-.8-.11-1.82-.2-3s-.22-2.52-.39-4-.32-2.93-.48-4.47-.3-3-.45-4.53-.3-2.84-.43-4.1a13,13,0,0,1,1.14-6.85,7.59,7.59,0,0,1,5-3.67,10.45,10.45,0,0,1,2.88-.45,6.12,6.12,0,0,1,3.85,1.26,28.16,28.16,0,0,1,5.43,6c.5.82,1.12,1.88,1.82,3.12l2.24,4c.79,1.43,1.59,2.86,2.38,4.3l2.2,3.95c.7,1.23,1.29,2.22,1.8,3a9.92,9.92,0,0,0,2.94,3.37,3.68,3.68,0,0,0,2,.6,3.59,3.59,0,0,0,1.06-.16,3.48,3.48,0,0,0,2.64-2.66,17.38,17.38,0,0,0,0-5.9c-.12-.82-.29-1.86-.53-3.09s-.55-2.6-.91-4.13-.79-3.15-1.25-4.86-1-3.48-1.48-5.29-1-3.67-1.49-5.32-.84-3.23-1.18-4.68-.62-2.76-.82-3.91a19.62,19.62,0,0,1-.3-2.94,7.78,7.78,0,0,1,1.46-4,7.16,7.16,0,0,1,3.81-2.41,10.11,10.11,0,0,1,2.77-.44,5.27,5.27,0,0,1,3,.85,17.55,17.55,0,0,1,4.49,4.87q1.2,2.07,2.38,4.59c.78,1.67,1.55,3.47,2.29,5.36s1.45,3.84,2.13,5.87,1.31,4.08,1.91,6.14q1,3.66,1.87,7.51c.57,2.57,1,5.09,1.42,7.53.09.63.17,1.19.25,1.79l1,.32c1.32.42,2.6.85,3.86,1.27,2.38.87,4.72,1.66,7,2.4s4.38,1.35,6.26,1.85a26.49,26.49,0,0,0,4.48.9,20.94,20.94,0,0,0,2.15.12,11.48,11.48,0,0,0,2.73-.29,3.91,3.91,0,0,0,2.7-2.47,4.29,4.29,0,0,0-.24-3.75,11.23,11.23,0,0,0-3.49-3.73c-.67-.48-1.5-1.06-2.51-1.74s-2.12-1.4-3.34-2.17L166.46,204l-3.83-2.47-3.46-2.22a13.14,13.14,0,0,1-4.66-5.15,7.77,7.77,0,0,1,.25-6.22c1.1-2.64,2.71-4.23,4.83-4.75a24.36,24.36,0,0,1,5.56-.55c.81,0,1.66,0,2.55.07s2.16.3,3.58.54,2.94.49,4.56.76l4.84.83c1.6.27,3.1.5,4.47.72s2.55.38,3.48.49a15.56,15.56,0,0,0,2,.15,7.73,7.73,0,0,0,2.43-.34,3.6,3.6,0,0,0,2.24-2.09,3.52,3.52,0,0,0-.44-3.73,17.58,17.58,0,0,0-4.62-3.67c-.72-.43-1.64-.91-2.75-1.5s-2.38-1.21-3.8-1.87-2.94-1.35-4.58-2.06-3.32-1.42-5.07-2.14-3.51-1.47-5.09-2.15-3-1.35-4.39-2-2.53-1.22-3.54-1.79a16.39,16.39,0,0,1-2.51-1.61,7.67,7.67,0,0,1-2.23-3.63,7,7,0,0,1,.49-4.49c.94-2.32,2.25-3.73,3.93-4.27a14.12,14.12,0,0,1,4.36-.58c.7,0,1.45,0,2.24.09,1.58.26,3.26.59,5.07,1s3.67.94,5.61,1.52,3.92,1.26,5.92,2,4,1.51,6,2.33c2.33,1,4.67,2.08,7,3.23s4.63,2.34,6.77,3.57c.56.32,1,.62,1.56.93l.87-.58c1.15-.77,2.28-1.51,3.4-2.22,2.16-1.32,4.24-2.66,6.24-4s3.79-2.59,5.35-3.74a26.16,26.16,0,0,0,3.49-2.94,14.45,14.45,0,0,0,2.92-3.92,3.93,3.93,0,0,0-.25-3.65,4.26,4.26,0,0,0-3.09-2.16,8,8,0,0,0-1.51-.14,13.41,13.41,0,0,0-3.58.55c-.78.22-1.76.52-2.93.88s-2.4.77-3.76,1.26l-4.25,1.45-4.31,1.46L200,146.61a16.44,16.44,0,0,1-4.52.72,9.2,9.2,0,0,1-2.41-.29,7.77,7.77,0,0,1-4.7-4.06c-1.39-2.52-1.63-4.76-.7-6.76a28.58,28.58,0,0,1,4.68-6.63c.69-.67,1.57-1.51,2.64-2.47s2.21-2,3.44-3.08l3.67-3.26,3.37-3.06c1-.94,1.87-1.75,2.53-2.42a9.93,9.93,0,0,0,2.63-3.59,3.56,3.56,0,0,0-.24-3.06,3.45,3.45,0,0,0-3.18-2h-.07a17.9,17.9,0,0,0-5.67,1.31c-.79.31-1.75.72-2.9,1.22s-2.43,1.11-3.83,1.81-2.9,1.45-4.45,2.29-3.18,1.71-4.84,2.63-3.34,1.82-4.86,2.64-2.95,1.53-4.29,2.19-2.55,1.21-3.62,1.65a17,17,0,0,1-2.82,1,9.26,9.26,0,0,1-1.27.09,7.22,7.22,0,0,1-3-.61,7,7,0,0,1-3.19-3.18c-1.22-2.17-1.51-4.1-.89-5.73a17.15,17.15,0,0,1,3.74-5.45c1.18-1.09,2.48-2.21,3.95-3.34s3-2.28,4.71-3.43,3.43-2.28,5.26-3.39,3.68-2.17,5.55-3.22c2.24-1.2,4.54-2.37,6.92-3.5s4.72-2.14,7-3c.6-.24,1.13-.43,1.7-.65,0-.35.06-.68.08-1,.12-1.37.25-2.72.39-4,.3-2.52.57-5,.77-7.39s.35-4.56.43-6.5a26.72,26.72,0,0,0-.14-4.56,14,14,0,0,0-1.25-4.71,3.89,3.89,0,0,0-3-2.1,4.59,4.59,0,0,0-.73-.06A4.38,4.38,0,0,0,194,58.64a11.52,11.52,0,0,0-2.87,4.24c-.31.76-.69,1.7-1.13,2.83s-.88,2.38-1.37,3.74-1,2.77-1.51,4.23-1,2.88-1.54,4.28-1,2.68-1.39,3.88a13.26,13.26,0,0,1-4,5.68A6.94,6.94,0,0,1,176,88.81a12.25,12.25,0,0,1-1.86-.15c-2.83-.48-4.74-1.69-5.71-3.66a28.21,28.21,0,0,1-2.26-7.79c-.11-1-.2-2.17-.3-3.61s-.17-3-.26-4.61-.18-3.28-.27-4.91-.19-3.14-.28-4.52-.19-2.57-.3-3.5a10.43,10.43,0,0,0-1.18-4.31A3.65,3.65,0,0,0,161,50a5.32,5.32,0,0,0-.78-.06,3.37,3.37,0,0,0-2.76,1.32,17.77,17.77,0,0,0-2.55,5.32c-.25.79-.54,1.8-.85,3s-.65,2.58-1,4.13-.66,3.16-1,4.91-.65,3.56-1,5.41-.65,3.75-1,5.45-.65,3.26-1,4.73-.65,2.74-1,3.85a18.51,18.51,0,0,1-1,2.79,7.68,7.68,0,0,1-3.06,3,6.42,6.42,0,0,1-2.93.65,9.44,9.44,0,0,1-1.55-.13q-3.69-.65-5-2.88a17.54,17.54,0,0,1-1.94-6.33c-.11-1.59-.16-3.33-.14-5.17s.11-3.79.25-5.82.36-4.1.65-6.22.58-4.24.94-6.36c.44-2.49,1-5,1.58-7.58s1.26-5,2-7.4c.17-.6.36-1.18.54-1.75-.26-.23-.49-.45-.74-.69-1-.94-2-1.89-2.92-2.82-1.78-1.81-3.54-3.54-5.29-5.21s-3.35-3.12-4.82-4.38a26.69,26.69,0,0,0-3.65-2.74,14,14,0,0,0-4.47-2,3.59,3.59,0,0,0-.79-.08,4,4,0,0,0-2.72,1.13,4.26,4.26,0,0,0-1.4,3.48,11.33,11.33,0,0,0,1.52,4.88c.4.71.89,1.59,1.5,2.65s1.31,2.19,2.08,3.4l2.36,3.81,2.38,3.89c.79,1.26,1.49,2.42,2.17,3.51a13.15,13.15,0,0,1,2,6.66,7.68,7.68,0,0,1-2.92,5.48,7.83,7.83,0,0,1-5.16,2.33M111.33,0h0a19.15,19.15,0,0,0-6.62,1.19A21.51,21.51,0,0,0,98,5.31a18.7,18.7,0,0,0-5.42,7.46,14.91,14.91,0,0,0-.48,8.1,2.61,2.61,0,0,0,.06.27A48,48,0,0,0,94,26c.73,1.62,1.55,3.32,2.52,5.21s2,3.7,2.93,5.33,2,3.38,2.88,4.92a21.2,21.2,0,0,1,1.32,2.66,40.34,40.34,0,0,1-3.43-2.27l0,0c-1.25-.88-2.7-1.87-4.57-3.11-1.62-1.05-3.32-2.11-5.07-3.15s-3.5-2-5-2.73A32.78,32.78,0,0,0,81,30.9l0,0a15.24,15.24,0,0,0-4.44-.67,14.55,14.55,0,0,0-3.87.52A18.41,18.41,0,0,0,65.13,35,26.61,26.61,0,0,0,60,41.24a19.09,19.09,0,0,0-2.24,5.58l-2.28.09c-2,.09-4,.23-5.91.37h-.13c-3.86.27-7.61.71-11.16,1.31a74.37,74.37,0,0,0-9.82,2.3,32,32,0,0,0-7.59,3.32,24,24,0,0,0-6,4.87,19.46,19.46,0,0,0-3.73,6.56,20.83,20.83,0,0,0-.94,7.81,18.71,18.71,0,0,0,2.46,8.88,15,15,0,0,0,6,5.43l.29.13a48.69,48.69,0,0,0,4.92,1.55c1.7.45,3.56.87,5.66,1.28s4.08.76,5.94,1,3.83.57,5.67.81a22.11,22.11,0,0,1,2.9.62,36.83,36.83,0,0,1-3.91,1.27q-2.7.78-5.36,1.65c-2,.65-3.84,1.31-5.64,2-2,.76-3.72,1.49-5.26,2.23a32.88,32.88,0,0,0-4.32,2.37,14.86,14.86,0,0,0-5.32,6.41,18.54,18.54,0,0,0-1.36,8.51,26.88,26.88,0,0,0,1.69,7.94,19.36,19.36,0,0,0,3,5.23q-.68.88-1.35,1.83c-1.32,1.84-2.46,3.47-3.48,5a108.75,108.75,0,0,0-5.92,9.51,71.84,71.84,0,0,0-4.35,9.13,32.21,32.21,0,0,0-2.11,8,23.18,23.18,0,0,0,0,7.76,18.86,18.86,0,0,0,2.81,7,20.9,20.9,0,0,0,5.51,5.6,18.61,18.61,0,0,0,8.49,3.61,15.67,15.67,0,0,0,1.69.09,15.1,15.1,0,0,0,6.29-1.4l.29-.15a50.66,50.66,0,0,0,4.26-2.87c1.5-1.12,3-2.33,4.53-3.62s2.86-2.48,4.5-4c1.41-1.29,2.72-2.54,4-3.74l.21-.2a21.33,21.33,0,0,1,2.3-1.88,37.76,37.76,0,0,1-1.45,3.83l0,.07c-.63,1.55-1.29,3.24-2,5.17s-1.36,3.78-1.95,5.65-1.08,3.57-1.55,5.48a35.82,35.82,0,0,0-.82,4.87v.06a14.85,14.85,0,0,0,1.7,8.12,18.51,18.51,0,0,0,5.8,6.34,27.11,27.11,0,0,0,7.27,3.65,19.43,19.43,0,0,0,5.92.93h0c.21.77.4,1.49.6,2.19.51,1.83,1.07,3.74,1.72,5.84,1.14,3.73,2.4,7.28,3.75,10.55a72.53,72.53,0,0,0,4.43,9.08A33,33,0,0,0,73.51,249a23.18,23.18,0,0,0,6.14,4.8,18.79,18.79,0,0,0,7.2,2.16c.57.05,1.17.08,1.77.08a21.4,21.4,0,0,0,6-.9,18.6,18.6,0,0,0,8.1-4.35,15.07,15.07,0,0,0,4-7.09l.06-.31a45.89,45.89,0,0,0,.42-5.14c.06-1.67,0-3.57,0-5.78s-.17-4.13-.3-6c-.13-1.73-.27-3.54-.46-5.7a19.59,19.59,0,0,1,0-3,37.85,37.85,0,0,1,2.1,3.51l0,.05c.77,1.39,1.68,3,2.77,4.8s2.15,3.46,3.2,5,2.23,3.2,3.36,4.66a34,34,0,0,0,3.28,3.68l0,0a14.85,14.85,0,0,0,7.39,3.73,17.64,17.64,0,0,0,3,.27,20,20,0,0,0,5.59-.85,26.92,26.92,0,0,0,7.37-3.42,19.16,19.16,0,0,0,4.43-4.06c.68.31,1.37.61,2.07.91,1.86.79,3.76,1.57,5.67,2.3A106.64,106.64,0,0,0,167.27,242a74.34,74.34,0,0,0,9.86,2.2,39.49,39.49,0,0,0,5.56.44,25.44,25.44,0,0,0,2.69-.14,24,24,0,0,0,7.55-1.79,19.21,19.21,0,0,0,6.2-4.29,21,21,0,0,0,4.23-6.64,18.64,18.64,0,0,0,1.63-9.05,14.86,14.86,0,0,0-3.05-7.48,2,2,0,0,0-.18-.23,48.25,48.25,0,0,0-3.76-3.56c-1.32-1.12-2.8-2.29-4.55-3.6-1.54-1.15-3.19-2.34-4.9-3.52-1.53-1.05-3.13-2.13-4.76-3.2a21.93,21.93,0,0,1-2.34-1.81,36.6,36.6,0,0,1,4.06.56h.08c1.73.28,3.57.55,5.46.81s3.82.46,5.92.65,3.88.25,5.74.26h.46a32.29,32.29,0,0,0,4.45-.27h0a14.84,14.84,0,0,0,7.54-3.45,18.56,18.56,0,0,0,4.91-7.08,26.4,26.4,0,0,0,1.93-7.91,19.13,19.13,0,0,0-.41-6l2-1c2-1.08,3.89-2.18,5.32-3a109.17,109.17,0,0,0,9.46-6,72.8,72.8,0,0,0,7.87-6.36,33,33,0,0,0,5.39-6.26,23.77,23.77,0,0,0,3.29-7,19.35,19.35,0,0,0,.53-7.5,21.43,21.43,0,0,0-2.54-7.44,18.9,18.9,0,0,0-6.08-6.94,14.79,14.79,0,0,0-7.76-2.28h-.29a43,43,0,0,0-5.15.73c-1.71.33-3.62.77-5.64,1.3s-3.85,1-5.8,1.64-3.76,1.17-5.47,1.73a21.59,21.59,0,0,1-2.86.69,37.74,37.74,0,0,1,3-2.83l0,0c1.32-1.18,2.64-2.42,4.06-3.77s2.83-2.8,4.21-4.25,2.56-2.81,3.77-4.28a34.08,34.08,0,0,0,2.86-4,14.75,14.75,0,0,0,2-8.1,18.4,18.4,0,0,0-2.47-8.24,27.22,27.22,0,0,0-4.95-6.43,19.77,19.77,0,0,0-5-3.41c.14-.75.28-1.5.41-2.26.41-2.33.72-4.24,1-6,.59-3.77,1-7.52,1.2-11.11a71.89,71.89,0,0,0,0-10.1,32.37,32.37,0,0,0-1.55-8.11,23.48,23.48,0,0,0-3.42-7,19.32,19.32,0,0,0-5.56-5.08A20.72,20.72,0,0,0,206,31.51a24.77,24.77,0,0,0-4.08-.36,15.69,15.69,0,0,0-5.1.79,14.77,14.77,0,0,0-6.63,4.65,1.08,1.08,0,0,0-.18.24,45.34,45.34,0,0,0-2.63,4.46c-.95,1.84-1.77,3.56-2.5,5.25s-1.61,3.69-2.34,5.53-1.42,3.66-2.06,5.36a20.61,20.61,0,0,1-1.24,2.68,39.47,39.47,0,0,1-.36-4.08V56c-.12-1.72-.26-3.53-.43-5.52s-.42-4-.7-5.94c-.29-2.07-.62-3.92-1-5.63a33.27,33.27,0,0,0-1.35-4.71l0,0a14.79,14.79,0,0,0-5.06-6.6,18.55,18.55,0,0,0-8-3.21,27.8,27.8,0,0,0-4.51-.37,25.56,25.56,0,0,0-3.61.25,19,19,0,0,0-5.75,1.74c-.48-.58-1-1.15-1.49-1.73-1.45-1.65-2.79-3.12-4.09-4.51A111.41,111.41,0,0,0,135,11.79,73.5,73.5,0,0,0,127,5.53a33,33,0,0,0-7.31-3.85A23.91,23.91,0,0,0,112.16,0l-.83,0Zm6.28,71.25a10.67,10.67,0,0,0,7.17-3.11,10.54,10.54,0,0,0,3.91-7.61,16,16,0,0,0-2.32-8.19,1.09,1.09,0,0,0-.08-.15c-.31-.48-.62-1-.94-1.51s-.8-1.31-1.24-2l-1.32-2.16-1-1.71-.58-.94L119.37,41c-.75-1.19-1.43-2.3-2-3.32s-1-1.81-1.4-2.49l-.06-.11a8.34,8.34,0,0,1-1.15-3.52,1.26,1.26,0,0,1,.41-1.15c.4-.36.62-.36.71-.36a.82.82,0,0,1,.21,0,11.14,11.14,0,0,1,3.47,1.57l.09.06a22.48,22.48,0,0,1,3.19,2.41c1.38,1.19,2.92,2.59,4.71,4.28s3.54,3.44,5.21,5.14c.78.77,1.57,1.54,2.38,2.31h0c-.72,2.35-1.41,4.91-2,7.55s-1.18,5.31-1.61,7.73c-.37,2.16-.69,4.34-1,6.51S130,72,129.85,74s-.23,4-.26,6,0,3.76.15,5.42a1.79,1.79,0,0,0,0,.23,20.27,20.27,0,0,0,2.33,7.43c1.37,2.28,3.76,3.72,7.11,4.3a12.67,12.67,0,0,0,2.06.18,9.37,9.37,0,0,0,4.29-1,10.71,10.71,0,0,0,4.29-4.16c0-.08.09-.16.13-.25a21.28,21.28,0,0,0,1.17-3.24c.39-1.38.72-2.71,1-4s.65-3,1-4.81.65-3.52,1-5.51c.25-1.49.59-3.46,1-5.34.32-1.72.65-3.35,1-4.84s.61-2.68.95-4c.31-1.17.58-2.13.8-2.84a14.58,14.58,0,0,1,2-4.35.43.43,0,0,1,.43-.21l.31,0c.17,0,.29.08.48.37a7.45,7.45,0,0,1,.72,3v.06c.09.79.18,1.85.28,3.34s.19,2.88.28,4.49l0,.33c.09,1.51.18,3,.25,4.55l.11,1.8c.05,1,.11,1.94.16,2.84.11,1.67.21,2.82.31,3.78a.77.77,0,0,1,0,.15,30.87,30.87,0,0,0,2.53,8.64c1,2,3.14,4.48,7.91,5.27a13.81,13.81,0,0,0,2.35.2,9.91,9.91,0,0,0,6-1.88A16.24,16.24,0,0,0,187,83l.06-.15.16-.46c.38-1.06.78-2.19,1.22-3.39l.56-1.55c.32-.91.65-1.82,1-2.76.49-1.34,1-2.78,1.51-4.25.48-1.31.93-2.54,1.35-3.66s.79-2,1.09-2.74a8.81,8.81,0,0,1,2-3.11,1.35,1.35,0,0,1,.91-.41l.22,0c.66.11.77.33.86.51a10.76,10.76,0,0,1,.94,3.69s0,.07,0,.11a23.69,23.69,0,0,1,.11,4c-.08,1.87-.22,4-.42,6.35-.17,2.1-.42,4.42-.76,7.29-.12,1.08-.22,2.18-.32,3.29-2.31.91-4.72,2-7.17,3.11s-4.74,2.33-7.05,3.57l-.06,0c-2.13,1.2-4,2.27-5.63,3.27-1.89,1.15-3.72,2.32-5.41,3.49-1.89,1.3-3.48,2.46-4.86,3.54s-2.79,2.25-4.13,3.49a1.06,1.06,0,0,0-.15.15,19.88,19.88,0,0,0-4.36,6.45c-1,2.48-.6,5.26,1.07,8.25a10,10,0,0,0,4.58,4.45,10.18,10.18,0,0,0,4.21.88,12.22,12.22,0,0,0,1.69-.12l.22,0a20.23,20.23,0,0,0,3.33-1.1c1.07-.44,2.31-1,3.79-1.73,1.63-.81,3-1.52,4.37-2.24l.35-.18c1.46-.78,3-1.59,4.58-2.5s3.19-1.75,4.77-2.59c1.32-.71,2.71-1.42,4.38-2.25,1.19-.6,2.4-1.17,3.72-1.76,1.16-.5,2-.88,2.74-1.16a14.76,14.76,0,0,1,4.61-1.11h.07c.21,0,.32,0,.55.42a.63.63,0,0,1,0,.63,7,7,0,0,1-1.87,2.41l-.08.07c-.55.56-1.27,1.26-2.42,2.32l-.75.68c-.81.74-1.67,1.52-2.59,2.34-1.2,1.08-2.43,2.17-3.65,3.25l-1,.91c-.87.77-1.69,1.5-2.46,2.2-.95.86-1.87,1.72-2.72,2.55a.86.86,0,0,0-.13.14,30.67,30.67,0,0,0-5.16,7.36c-1.35,2.9-1.09,6.08.78,9.47a10.71,10.71,0,0,0,6.57,5.52,12.4,12.4,0,0,0,3.17.39,19.62,19.62,0,0,0,5.35-.83l.14-.05,3.89-1.32,4.15-1.4.18-.06,4.26-1.45c1.44-.52,2.72-.94,3.69-1.24,1.17-.36,2.1-.65,2.83-.85a10.53,10.53,0,0,1,2.77-.44,4.72,4.72,0,0,1,.95.09,1.24,1.24,0,0,1,1,.66c.32.57.21.81.13,1a11.69,11.69,0,0,1-2.31,3l0,0a22.23,22.23,0,0,1-3.08,2.58c-1.57,1.16-3.33,2.39-5.24,3.66-2.21,1.45-4.22,2.74-6.15,3.92-.93.59-1.86,1.2-2.79,1.81-2.18-1.24-4.51-2.47-6.92-3.65-2.61-1.27-4.95-2.34-7.18-3.29-2.49-1-4.38-1.75-6.16-2.39s-3.9-1.4-6-2.06-4.07-1.17-5.8-1.58-3.53-.79-5.29-1.07l-.23,0c-.87-.07-1.71-.1-2.48-.1a17,17,0,0,0-5.3.73c-2.53.81-4.48,2.82-5.77,6a10,10,0,0,0-.62,6.36,10.55,10.55,0,0,0,3.08,5.07l.18.16a19.24,19.24,0,0,0,2.94,1.9c1.07.6,2.32,1.23,3.73,1.89,1.24.59,2.66,1.23,4.45,2,1.49.64,3.25,1.4,5.16,2.17,1.63.68,3.38,1.41,5,2.12s3.13,1.39,4.52,2,2.44,1.17,3.67,1.81,2,1.07,2.6,1.41a14.48,14.48,0,0,1,3.79,2.95c.15.18.22.27,0,.76a.64.64,0,0,1-.43.38,5,5,0,0,1-1.46.17,12.81,12.81,0,0,1-1.65-.12c-1.07-.13-2.2-.29-3.4-.48l-1-.16-3.42-.56-2.63-.45-2.18-.38-1.72-.29-2.9-.47c-1.25-.21-2.48-.4-3.65-.55l-.21,0c-.95-.05-1.87-.08-2.73-.08a26.84,26.84,0,0,0-6.24.63c-2.15.52-5.07,2.07-6.92,6.52a10.68,10.68,0,0,0-.23,8.58,16.2,16.2,0,0,0,5.68,6.39l.1.07,3.49,2.24,1.12.72,2.67,1.73,3.26,2.06.56.36.18.11c1.11.71,2.16,1.38,3.07,2s1.71,1.16,2.46,1.7a8.59,8.59,0,0,1,2.58,2.67,1.27,1.27,0,0,1,.12,1.23c-.22.55-.44.64-.69.71a8.64,8.64,0,0,1-2,.19,17.54,17.54,0,0,1-1.84-.1h-.05a26.08,26.08,0,0,1-4-.8c-1.88-.51-3.93-1.12-6.11-1.82-2.66-.86-4.85-1.61-6.9-2.36l-.06,0-3.1-1c-.4-2.53-.88-5.11-1.45-7.69-.65-2.87-1.28-5.37-1.91-7.66s-1.33-4.44-2-6.3c-.8-2.42-1.5-4.34-2.18-6-.75-1.9-1.55-3.77-2.37-5.51s-1.65-3.37-2.5-4.82l-.1-.17a20.51,20.51,0,0,0-5.31-5.69,8.34,8.34,0,0,0-4.68-1.35,13,13,0,0,0-3.6.56,10,10,0,0,0-5.37,3.48,10.74,10.74,0,0,0-2.06,5.57c0,.11,0,.22,0,.33a23.27,23.27,0,0,0,.34,3.38c.24,1.34.52,2.71.86,4.11s.75,3.06,1.2,4.74.9,3.31,1.51,5.4c.54,1.88,1,3.58,1.46,5.22.5,1.85.89,3.37,1.23,4.79s.62,2.7.89,4c.18,1,.36,1.94.5,2.9a14.42,14.42,0,0,1,.07,4.8c-.05.21-.08.33-.57.47a.63.63,0,0,1-.21,0,.7.7,0,0,1-.38-.15,6.83,6.83,0,0,1-2-2.37c-.59-1-1.16-1.91-1.74-2.95l-.42-.74-1.78-3.19-1.19-2.15-1.18-2.14c-.81-1.45-1.55-2.79-2.24-4.05-.82-1.44-1.42-2.46-1.9-3.24a1.3,1.3,0,0,0-.1-.15,30.65,30.65,0,0,0-6-6.69,9,9,0,0,0-5.69-1.89,13.37,13.37,0,0,0-3.72.57A10.56,10.56,0,0,0,91,192.07a16,16,0,0,0-1.46,8.39.57.57,0,0,0,0,.13c.12,1.27.27,2.64.42,4.12.1.86.18,1.75.27,2.64.06.62.13,1.24.19,1.87.16,1.56.32,3.06.47,4.5s.29,2.58.39,3.86c.09,1.1.17,2.15.2,2.92a8.51,8.51,0,0,1-.49,3.74,1.33,1.33,0,0,1-.89.86,2.06,2.06,0,0,1-.48.07.67.67,0,0,1-.47-.16,11.53,11.53,0,0,1-2.47-2.95l0-.05a22.22,22.22,0,0,1-1.83-3.56c-.79-1.85-1.6-3.84-2.39-5.92-.9-2.4-1.71-4.66-2.47-6.89-.37-1.07-.76-2.1-1.14-3.11,1.66-1.8,3.32-3.73,5.09-5.93s3.3-4.18,4.81-6.25l0-.06c1.44-2.06,2.6-3.78,3.66-5.42,1.25-1.9,2.38-3.74,3.37-5.46,1.08-1.9,2-3.63,2.83-5.3s1.6-3.35,2.22-4.94a1.18,1.18,0,0,0,.07-.2,20.14,20.14,0,0,0,1.12-7.71c-.21-2.64-1.74-5-4.53-7a10.17,10.17,0,0,0-5.82-2h-.28a10.48,10.48,0,0,0-5.63,1.87c-.08,0-.16.12-.24.18a21.74,21.74,0,0,0-2.44,2.4c-.78.87-1.65,1.91-2.66,3.18-.82,1.06-1.87,2.42-3,3.93-.94,1.28-2,2.72-3.27,4.54-1,1.42-2,2.86-3.17,4.4s-2.13,2.85-3,3.92c-1.06,1.36-1.87,2.37-2.58,3.19l0,0c-.76.9-1.41,1.65-2,2.22a15,15,0,0,1-3.72,3,.65.65,0,0,1-.23.06A1.09,1.09,0,0,1,59,185a.62.62,0,0,1-.29-.53,7.36,7.36,0,0,1,.64-3c.32-.92.73-2,1.22-3.22.35-.89.75-1.84,1.16-2.84l.54-1.32c.44-1.08.88-2.15,1.33-3.23l.54-1.31c.6-1.41,1.19-2.83,1.78-4.3s1-2.67,1.34-3.46l.06-.18a30.43,30.43,0,0,0,1.46-8.9c0-2.18-.87-5.38-4.83-8.17a11.22,11.22,0,0,0-6.52-2.29,9.59,9.59,0,0,0-1.78.17,15.85,15.85,0,0,0-7.49,4.09l-.1.1-2.94,2.89-.15.15-3.09,3c-.74.71-1.44,1.41-2.14,2.1l-1.07,1.06c-1,1-1.89,1.86-2.81,2.73s-1.58,1.48-2.16,2a8.69,8.69,0,0,1-3.2,1.93,2.28,2.28,0,0,1-.54.08,1.1,1.1,0,0,1-.68-.23c-.49-.34-.54-.58-.55-.84a11.59,11.59,0,0,1,.78-3.73l0-.07a22.09,22.09,0,0,1,1.64-3.64c.88-1.64,1.9-3.46,3.15-5.57s2.59-4.27,3.83-6.22c.64-1,1.2-1.95,1.72-2.83,2.53.18,5.16.28,7.83.29h1c2.33,0,4.64-.05,6.88-.15s4.26-.29,6.58-.52c2.15-.2,4.29-.47,6.36-.77s4.11-.7,5.91-1.09c2-.43,3.71-.87,5.26-1.36l.18-.06a19.93,19.93,0,0,0,6.74-3.92c1.93-1.83,2.81-4.49,2.62-7.9a10.2,10.2,0,0,0-2.18-6,10.71,10.71,0,0,0-5-3.26l-.3-.08a22.27,22.27,0,0,0-3.41-.43c-1.07-.06-2.21-.08-3.39-.08h-.79c-1.35,0-2.91,0-4.9.13-1.48,0-3.47.13-5.61.27s-3.82.21-5.39.26c-2,.07-3.56.11-4.95.13H52.15c-1,0-1.95,0-2.94,0s-2.09-.09-2.94-.15a14.65,14.65,0,0,1-4.68-1c-.22-.1-.32-.15-.35-.68,0-.13,0-.27.26-.56a7.08,7.08,0,0,1,2.73-1.34l.08,0c.81-.29,1.86-.63,3.2-1l4.31-1.27,4.69-1.34,4.48-1.3c1.58-.48,2.71-.83,3.58-1.13l.16-.06a30.91,30.91,0,0,0,7.86-4.39c1.7-1.39,3.67-4.06,3.38-8.88a10.58,10.58,0,0,0-3.5-7.82,16.11,16.11,0,0,0-7.87-3.3l-.18,0-2.21-.26-1.87-.22-2.68-.33-1.83-.22c-1.36-.18-2.8-.36-4.49-.54-1.22-.14-2.45-.29-3.86-.49-1.18-.18-2.16-.33-2.91-.46a8.62,8.62,0,0,1-3.47-1.3,1.27,1.27,0,0,1-.65-1c0-.65.14-.8.29-.93A11.62,11.62,0,0,1,44.17,73a23.67,23.67,0,0,1,3.94-1c1.88-.36,4-.7,6.29-1,2.52-.35,4.89-.63,7.26-.87h.06L65,69.71c1.45,2.09,3,4.2,4.65,6.28s3.39,4.21,5,6.09c1.35,1.5,2.81,3.06,4.49,4.81,1.48,1.55,3,3,4.58,4.5s3.1,2.77,4.54,3.94,3,2.36,4.35,3.27l.16.11a20.54,20.54,0,0,0,7.23,2.82,8.15,8.15,0,0,0,1.08.07,10.17,10.17,0,0,0,6.76-3,10,10,0,0,0,3.32-5.45,10.6,10.6,0,0,0-.57-5.93l-.11-.24a21.17,21.17,0,0,0-1.81-3c-.63-.89-1.43-1.94-2.52-3.29S104,78.13,103,77c-1.18-1.37-2.47-2.83-3.7-4.2-1.37-1.53-2.55-2.86-3.6-4.09-1.24-1.44-2.25-2.63-3.17-3.77S90.71,62.68,90,61.69s-1.33-1.83-1.72-2.41A14.55,14.55,0,0,1,86.11,55c0-.2-.07-.33.3-.68a.57.57,0,0,1,.42-.16H87a7.17,7.17,0,0,1,2.79,1.29l.09.06c.75.45,1.68,1.07,2.77,1.83l1.24.87c.79.55,1.61,1.13,2.49,1.73L98,61.11l2.33,1.66c1.17.84,2.28,1.62,3.33,2.35l.45.32c1.17.83,2.22,1.54,3.13,2.11a.6.6,0,0,0,.15.09,31.05,31.05,0,0,0,8.34,3.4,8.47,8.47,0,0,0,1.88.21Z"/></g></g></svg>