<svg xmlns="http://www.w3.org/2000/svg" viewBox="0 0 424.47 200"><g id="Layer_2" data-name="Layer 2"><g id="Layer_1-2" data-name="Layer 1"><path d="M125,47.6a3.88,3.88,0,0,1-2.52-.79,4.46,4.46,0,0,1-1.38-2.25,12.2,12.2,0,0,1-.43-3.46c0-1,0-2,.08-3.08s.15-2.24.28-3.4.3-2.34.5-3.5.45-2.29.74-3.37a25.28,25.28,0,0,1,1-3,15.88,15.88,0,0,1,4.41-6,9.88,9.88,0,0,1,6.28-2.06,6.75,6.75,0,0,1,4.15,1.23,9.94,9.94,0,0,1,2.74,3.22,23.88,23.88,0,0,1,1.78,4.18,17.88,17.88,0,0,0,1.25,2.86c.45.83,1,1.24,1.58,1.24a2.76,2.76,0,0,0,2-1.13,19.6,19.6,0,0,0,2-3,31.64,31.64,0,0,1,2.88-4.4,11.31,11.31,0,0,1,3.38-2.91,9.25,9.25,0,0,1,4.53-1.05,8.27,8.27,0,0,1,5.82,2,11.61,11.61,0,0,1,3.16,5.45,27.92,27.92,0,0,1,1,7.73q0,1.5-.09,3.09c-.05,1.05-.13,2.1-.21,3.13s-.22,2-.37,3A26,26,0,0,1,169,43.9a5.81,5.81,0,0,1-1.63,2.8,4.1,4.1,0,0,1-2.7.86,3.9,3.9,0,0,1-2.51-.78,4.54,4.54,0,0,1-1.45-2.08q-.11-.68-.15-1.5c0-.56-.05-1.17-.05-1.84s0-1.38,0-2.16,0-1.62,0-2.52,0-1.85,0-2.85a22.35,22.35,0,0,0-.44-3.38,6.87,6.87,0,0,0-1-2.46,2,2,0,0,0-1.7-.92,2.79,2.79,0,0,0-2,1,11.54,11.54,0,0,0-1.81,2.53q-.87,1.56-1.74,3.36a17.36,17.36,0,0,1-3,4.73,5.22,5.22,0,0,1-4,1.57,4.6,4.6,0,0,1-3.76-1.55,10.65,10.65,0,0,1-2-4.15c-.38-1.35-.75-2.55-1.1-3.58a8.56,8.56,0,0,0-1.23-2.43,2.18,2.18,0,0,0-1.77-.89,2.5,2.5,0,0,0-1.82.92,9.1,9.1,0,0,0-1.58,2.78,36.68,36.68,0,0,0-1.15,4.17,40.65,40.65,0,0,0-.66,4.11c-.15,1.33-.25,2.55-.32,3.69a6.23,6.23,0,0,1-1.43,3.31A4.38,4.38,0,0,1,125,47.6Z"/><path d="M188.86,50.4a26.56,26.56,0,0,1-5.28-.52,14.4,14.4,0,0,1-4.5-1.7A8.69,8.69,0,0,1,176,45.06a9.09,9.09,0,0,1-1.14-4.7,8.06,8.06,0,0,1,1.5-5,10,10,0,0,1,4.09-3.1,22.85,22.85,0,0,1,5.81-1.58,47,47,0,0,1,6.7-.47c.66,0,1.34,0,2,.07l1.92.13c.58.05,1.08.07,1.48.07a1.61,1.61,0,0,0,1.1-.29,1.24,1.24,0,0,0,.3-.95,6.07,6.07,0,0,0-.27-1.89,4.66,4.66,0,0,0-.76-1.47,5.48,5.48,0,0,0-1.2-1.1,8,8,0,0,0-2.82-1.12,18,18,0,0,0-3.61-.35,17.41,17.41,0,0,0-4.25.49c-1.28.32-2.46.65-3.54,1a10.18,10.18,0,0,1-3.08.51,6.66,6.66,0,0,1-3.36-.71,2.47,2.47,0,0,1-1.2-2.29,3.86,3.86,0,0,1,1.2-2.76,10,10,0,0,1,3.26-2.12,21.36,21.36,0,0,1,4.77-1.35,33.57,33.57,0,0,1,5.7-.46A31,31,0,0,1,200.74,17,11.63,11.63,0,0,1,207,21.75q2.1,3.29,2.1,8.92a19.07,19.07,0,0,1-.17,2.68c-.11.77-.23,1.43-.37,2s-.25,1.06-.36,1.48A4.66,4.66,0,0,0,208,38a2.67,2.67,0,0,0,.57,1.63,16.13,16.13,0,0,0,1.33,1.57,10.7,10.7,0,0,1,1.33,1.7,3.65,3.65,0,0,1,.57,2,2.72,2.72,0,0,1-1.08,2.41,4.17,4.17,0,0,1-2.42.75,2.61,2.61,0,0,1-1.88-.68c-.48-.46-.91-.91-1.3-1.35a1.77,1.77,0,0,0-1.35-.67,2.46,2.46,0,0,0-1,.29,11.93,11.93,0,0,0-1.42.85c-.66.48-1.53,1-2.6,1.65a17.72,17.72,0,0,1-4,1.58A22.2,22.2,0,0,1,188.86,50.4Zm1-6.14a11.42,11.42,0,0,0,3.47-.53,10.2,10.2,0,0,0,3-1.52,7.72,7.72,0,0,0,2.15-2.31,5.49,5.49,0,0,0,.8-2.9,1.74,1.74,0,0,0-.68-1.52,4.44,4.44,0,0,0-2.15-.61c-1-.09-2.25-.14-3.83-.14a19.44,19.44,0,0,0-4.47.49,7.62,7.62,0,0,0-3.38,1.61,3.91,3.91,0,0,0-1.28,3.1,3.73,3.73,0,0,0,.78,2.43,4.57,4.57,0,0,0,2.2,1.44A10.76,10.76,0,0,0,189.83,44.26Z"/><path d="M231.65,48.7a21.12,21.12,0,0,1-8.6-1.62,12.28,12.28,0,0,1-5.66-4.87,15.14,15.14,0,0,1-2-8.11,15.83,15.83,0,0,1,1.73-7.75,11.26,11.26,0,0,1,5-4.76A17.76,17.76,0,0,1,230.05,20a13.12,13.12,0,0,1,4,.53,16,16,0,0,1,2.6,1.1c.47.27.88.5,1.25.69a2,2,0,0,0,.82.28c.33,0,.5-.31.5-.93s-.05-1.15-.14-2-.2-1.75-.35-2.74-.29-2-.43-3-.27-2-.37-2.82a19,19,0,0,1-.15-2.1q0-4.83,4.83-4.83a6.94,6.94,0,0,1,3.15.72,6,6,0,0,1,2.39,2.21,19.43,19.43,0,0,1,1,2.95c.32,1.24.62,2.59.88,4.07s.51,3,.72,4.53.37,3,.47,4.4.15,2.58.15,3.58A34.13,34.13,0,0,1,249.44,39a13.76,13.76,0,0,1-6.25,7.28Q238.89,48.69,231.65,48.7Zm.33-6.07a9.62,9.62,0,0,0,4.6-1,6.7,6.7,0,0,0,2.88-2.89,9.39,9.39,0,0,0,1-4.42,8.71,8.71,0,0,0-.94-4.23,6.13,6.13,0,0,0-2.61-2.58,8.55,8.55,0,0,0-4-.89,10.53,10.53,0,0,0-4.6.95,7.11,7.11,0,0,0-3.06,2.78,8.43,8.43,0,0,0-1.1,4.44,8.58,8.58,0,0,0,1,4.18,6.77,6.77,0,0,0,2.75,2.71A8.51,8.51,0,0,0,232,42.63Z"/><path d="M274.7,49.33a26,26,0,0,1-9.9-1.73,13.65,13.65,0,0,1-6.48-5.34A16.75,16.75,0,0,1,256,33.13a19.68,19.68,0,0,1,1.53-8,16.15,16.15,0,0,1,4.25-5.77,18.74,18.74,0,0,1,6.28-3.5,24,24,0,0,1,7.6-1.18,24.6,24.6,0,0,1,5.27.55,15.27,15.27,0,0,1,4.51,1.72,8.9,8.9,0,0,1,3.13,3,8.17,8.17,0,0,1,1.15,4.44,7.78,7.78,0,0,1-1,4.13,7.45,7.45,0,0,1-2.77,2.6,15,15,0,0,1-4,1.46c-1.5.34-3.06.6-4.68.8-.91.2-2,.38-3.32.54s-2.57.28-3.81.36-2.23.14-3,.14a2.69,2.69,0,0,0-1.38.25,1.05,1.05,0,0,0-.38,1,4.41,4.41,0,0,0,.4,1.66,7.09,7.09,0,0,0,4.3,4,15.32,15.32,0,0,0,4.46.55,16.24,16.24,0,0,0,4.68-.65c1.48-.43,2.87-.86,4.17-1.3a11.64,11.64,0,0,1,3.65-.65,4.69,4.69,0,0,1,2.58.62,2.65,2.65,0,0,1,.95,2.38,4.13,4.13,0,0,1-1.25,2.89A10.44,10.44,0,0,1,286,47.31a23.31,23.31,0,0,1-5.08,1.49A34.67,34.67,0,0,1,274.7,49.33ZM272.3,30a19.39,19.39,0,0,0,4.4-.48,7.73,7.73,0,0,0,3.37-1.6,3.82,3.82,0,0,0,1.3-3.05,3.81,3.81,0,0,0-1.69-3.43,8.46,8.46,0,0,0-4.65-1.1,9.86,9.86,0,0,0-3.43.62,10.55,10.55,0,0,0-3,1.7,8.53,8.53,0,0,0-2.11,2.48,5.89,5.89,0,0,0-.79,3,1.39,1.39,0,0,0,.67,1.27,5,5,0,0,0,2.12.52C269.45,30,270.72,30,272.3,30Z"/><path d="M312.62,47.83a23,23,0,0,1-9.9-1.87,12.29,12.29,0,0,1-5.86-5.66,21,21,0,0,1-1.93-9.57q0-2.46.18-5c.12-1.73.3-3.43.53-5.12s.53-3.3.87-4.83.72-2.94,1.12-4.23a23.58,23.58,0,0,1,1.3-3.37,8.39,8.39,0,0,1,2.43-2.61,5.4,5.4,0,0,1,3.13-1,4.09,4.09,0,0,1,3.1,1.11,4.15,4.15,0,0,1,1.07,3c0,.52,0,1.08-.07,1.7s-.1,1.28-.17,2-.14,1.36-.21,2-.14,1.33-.19,2-.06,1.24-.06,1.8a21.42,21.42,0,0,0,.1,2.46q.09.84.63.84a4,4,0,0,0,1.43-.4c.6-.27,1.27-.58,2-.94A12.16,12.16,0,0,1,314.8,19a13.82,13.82,0,0,1,3.89-.48,14.64,14.64,0,0,1,7.41,1.76,12,12,0,0,1,4.73,4.93,15.73,15.73,0,0,1,1.65,7.37A14.39,14.39,0,0,1,331,39.41a13.14,13.14,0,0,1-4.23,4.75,19,19,0,0,1-6.32,2.77A32.11,32.11,0,0,1,312.62,47.83Zm1.07-6.23a10.09,10.09,0,0,0,2.9-.45,9.1,9.1,0,0,0,2.78-1.4,7.28,7.28,0,0,0,2.08-2.47,7.73,7.73,0,0,0,.8-3.68,10.12,10.12,0,0,0-1-4.6,6.94,6.94,0,0,0-2.8-2.93A9,9,0,0,0,314,25a9.27,9.27,0,0,0-4.2.91,7,7,0,0,0-2.88,2.59,7.27,7.27,0,0,0-1.05,4,13.71,13.71,0,0,0,.77,4.77,6.36,6.36,0,0,0,2.48,3.19A8.09,8.09,0,0,0,313.69,41.6Z"/><path d="M343.34,60.19a4.18,4.18,0,0,1-2.89-1,3,3,0,0,1-1.1-2.35,3.86,3.86,0,0,1,1-2.65,8.33,8.33,0,0,1,2.89-2c1.11-.67,2.24-1.38,3.38-2.15s2.2-1.54,3.17-2.33a18.25,18.25,0,0,0,2.34-2.25,3.1,3.1,0,0,0,.9-1.87,2.31,2.31,0,0,0-1-1.56,18.63,18.63,0,0,0-3.29-2.1,22.89,22.89,0,0,1-3.67-2.55,31,31,0,0,1-3.37-3.32A27.21,27.21,0,0,1,339,30.4a20.37,20.37,0,0,1-1.87-3.86,11,11,0,0,1-.68-3.7,4.85,4.85,0,0,1,.65-2.52,4.69,4.69,0,0,1,1.76-1.75,5.07,5.07,0,0,1,2.52-.63,6.65,6.65,0,0,1,3.66,1,8.42,8.42,0,0,1,2.7,3.3,66.53,66.53,0,0,0,2.92,6.43,32.34,32.34,0,0,0,3.11,5,12.89,12.89,0,0,0,1.8,1.87,2.74,2.74,0,0,0,1.54.76,2.45,2.45,0,0,0,1.76-.86,7.45,7.45,0,0,0,1.34-1.9A35.37,35.37,0,0,0,363,27.78q1.2-3.11,2.4-6.18a10.5,10.5,0,0,1,2.2-2.9,4.36,4.36,0,0,1,3-1.13,4.46,4.46,0,0,1,3.68,1.33,5.45,5.45,0,0,1,1.05,3.47,16.6,16.6,0,0,1-.68,4.42,38,38,0,0,1-1.84,5c-.76,1.73-1.62,3.44-2.56,5.13s-1.92,3.27-2.93,4.75-2,2.76-2.89,3.85q-2.26,2.7-4.91,5.31a56,56,0,0,1-5.42,4.74,28.57,28.57,0,0,1-5.49,3.36A12.52,12.52,0,0,1,343.34,60.19Z"/><path d="M116.94,19.62a14.68,14.68,0,0,1-2.15,7.26q-4.31,7.26-10.76,7.26a23.77,23.77,0,0,1-7.52-1.61,54.79,54.79,0,0,0-21-4.58c-5,0-9.05,1.58-12.1,4.71s-4.57,7.3-4.57,12.5V65.59H89.79q8.33,0,13,3.76a12.39,12.39,0,0,1,4.71,10.22,12.11,12.11,0,0,1-4.71,10q-4.71,3.77-13,3.76H58.87v90.59q0,7.53-4.57,11.83T41.4,200q-8.07,0-12.91-4.3t-4.83-11.83V93.28H17.74c-5.38,0-9.67-1.25-12.9-3.76A12,12,0,0,1,0,79.57,12.41,12.41,0,0,1,4.7,69.35q4.71-3.75,13-3.76h5.92V46.24q0-20.7,13.3-33.47T71.51,0Q85.21,0,94.09,2A51.34,51.34,0,0,1,110.21,8.6Q116.93,12.91,116.94,19.62Z"/><path d="M135.08,194.36q-12.77-5.66-19.89-15.73a39.26,39.26,0,0,1-7.12-23.25q0-19.89,16.53-31.72t44.76-11.83q24.45,0,39.24,10.48v-6.45q0-12.63-7.79-19.35t-22.58-6.72q-22,0-37.9,9.4Q133.6,103,128.77,103q-5.93,0-10.49-5.38a12.49,12.49,0,0,1-3-7.79q0-6.72,7-11.83,9.68-7,24.46-11a117.9,117.9,0,0,1,31.18-4Q209.15,62.9,227,77t17.88,38.84V185q0,7-4.71,11t-12.77,4q-8.32,0-12.9-3.76T210,185.48v-2.95Q194.62,200,164.52,200,147.85,200,135.08,194.36ZM199.33,170q9.54-5.25,9.54-14.65,0-8.88-9.67-14.25t-25.81-5.38q-14.52,0-22.44,5.11A16.28,16.28,0,0,0,143,155.38a16.69,16.69,0,0,0,7.8,14.65q7.8,5.24,22,5.24Q189.78,175.27,199.33,170Z"/><path d="M272.86,195.7q-4.58-4.29-4.58-11.83V79q0-7.78,4.44-12t12.5-4.17q8.07,0,12.64,4.31c3,2.86,4.57,6.81,4.57,11.82V87.9a59,59,0,0,1,19.48-16.53A51.6,51.6,0,0,1,346,65.59h5.91q8.6,0,13.3,3.63t4.71,10.35q0,6.72-4.71,10.35t-13.3,3.63h-9.14q-18,0-28.63,11.42T303.5,136.29v47.58q0,7.53-4.84,11.83c-3.22,2.86-7.53,4.3-12.9,4.3Q277.42,200,272.86,195.7Z"/><path d="M385.89,40.72a18.52,18.52,0,0,1-6.05-14.38A18.57,18.57,0,0,1,385.89,12q6.06-5.51,16-5.51T418.15,12a18.2,18.2,0,0,1,6.32,14.38,18.15,18.15,0,0,1-6.32,14.38q-6.31,5.52-16.26,5.52T385.89,40.72Zm3.36,155q-4.56-4.29-4.56-11.83V79c0-5,1.52-9,4.56-11.82s7.35-4.31,12.91-4.31c5.37,0,9.68,1.44,12.9,4.31S419.9,74,419.9,79V183.87q0,7.53-4.84,11.83c-3.22,2.86-7.53,4.3-12.9,4.3Q393.82,200,389.25,195.7Z"/></g></g></svg>